{
	"asset":{
		"generator":"Khronos glTF Blender I/O v4.4.56",
		"version":"2.0"
	},
	"extensionsUsed":[
		"KHR_materials_specular"
	],
	"scene":0,
	"scenes":[
		{
			"name":"Scene",
			"nodes":[
				0
			]
		}
	],
	"nodes":[
		{
			"mesh":0,
			"name":"DLJ_XHH",
			"rotation":[
				0.7071068286895752,
				0,
				0,
				0.7071068286895752
			],
			"scale":[
				0.009999999776482582,
				0.009999999776482582,
				0.009999999776482582
			]
		}
	],
	"materials":[
		{
			"doubleSided":true,
			"extensions":{
				"KHR_materials_specular":{
					"specularColorFactor":[
						2.0,
						2.0,
						2.0
					]
				}
			},
			"name":"blinn1.009",
			"pbrMetallicRoughness":{
				"baseColorTexture":{
					"index":0
				},
				"metallicFactor":0.5,
				"roughnessFactor":0.7487671971321106
			}
		},
		{
			"doubleSided":true,
			"extensions":{
				"KHR_materials_specular":{
					"specularColorFactor":[
						2.0,
						2.0,
						2.0
					]
				}
			},
			"name":"blinn2.005",
			"pbrMetallicRoughness":{
				"baseColorTexture":{
					"index":1
				},
				"metallicFactor":0.5,
				"roughnessFactor":0.7487671971321106
			}
		}
	],
	"meshes":[
		{
			"name":"\u7f51\u683c.011",
			"primitives":[
				{
					"attributes":{
						"POSITION":0,
						"NORMAL":1,
						"TEXCOORD_0":2
					},
					"indices":3,
					"material":0
				},
				{
					"attributes":{
						"POSITION":4,
						"NORMAL":5,
						"TEXCOORD_0":6
					},
					"indices":7,
					"material":1
				}
			]
		}
	],
	"textures":[
		{
			"sampler":0,
			"source":0
		},
		{
			"sampler":0,
			"source":1
		}
	],
	"images":[
		{
			"mimeType":"image/jpeg",
			"name":"DLJ_XHH_01",
			"uri":"DLJ_XHH_01.jpg"
		},
		{
			"mimeType":"image/jpeg",
			"name":"DLJ_XHH_02",
			"uri":"DLJ_XHH_02.jpg"
		}
	],
	"accessors":[
		{
			"bufferView":0,
			"componentType":5126,
			"count":3750,
			"max":[
				177.8690185546875,
				1242.3309326171875,
				335.86065673828125
			],
			"min":[
				-177.8690185546875,
				-1242.3309326171875,
				-335.86065673828125
			],
			"type":"VEC3"
		},
		{
			"bufferView":1,
			"componentType":5126,
			"count":3750,
			"type":"VEC3"
		},
		{
			"bufferView":2,
			"componentType":5126,
			"count":3750,
			"type":"VEC2"
		},
		{
			"bufferView":3,
			"componentType":5123,
			"count":8007,
			"type":"SCALAR"
		},
		{
			"bufferView":4,
			"componentType":5126,
			"count":325,
			"max":[
				127.86740112304688,
				436.45184326171875,
				228.02410888671875
			],
			"min":[
				-128.23109436035156,
				-1235.9268798828125,
				119.73444366455078
			],
			"type":"VEC3"
		},
		{
			"bufferView":5,
			"componentType":5126,
			"count":325,
			"type":"VEC3"
		},
		{
			"bufferView":6,
			"componentType":5126,
			"count":325,
			"type":"VEC2"
		},
		{
			"bufferView":7,
			"componentType":5123,
			"count":810,
			"type":"SCALAR"
		}
	],
	"bufferViews":[
		{
			"buffer":0,
			"byteLength":45000,
			"byteOffset":0,
			"target":34962
		},
		{
			"buffer":0,
			"byteLength":45000,
			"byteOffset":45000,
			"target":34962
		},
		{
			"buffer":0,
			"byteLength":30000,
			"byteOffset":90000,
			"target":34962
		},
		{
			"buffer":0,
			"byteLength":16014,
			"byteOffset":120000,
			"target":34963
		},
		{
			"buffer":0,
			"byteLength":3900,
			"byteOffset":136016,
			"target":34962
		},
		{
			"buffer":0,
			"byteLength":3900,
			"byteOffset":139916,
			"target":34962
		},
		{
			"buffer":0,
			"byteLength":2600,
			"byteOffset":143816,
			"target":34962
		},
		{
			"buffer":0,
			"byteLength":1620,
			"byteOffset":146416,
			"target":34963
		}
	],
	"samplers":[
		{
			"magFilter":9729,
			"minFilter":9987
		}
	],
	"buffers":[
		{
			"byteLength":148036,
			"uri":"xhhdlj.bin"
		}
	]
}
