{
	"asset":{
		"generator":"Khronos glTF Blender I/O v4.4.56",
		"version":"2.0"
	},
	"scene":0,
	"scenes":[
		{
			"name":"Scene",
			"nodes":[
				0
			]
		}
	],
	"nodes":[
		{
			"mesh":0,
			"name":"WRJ_J6",
			"rotation":[
				0.7071068286895752,
				0,
				0,
				0.7071068286895752
			],
			"scale":[
				0.009999999776482582,
				0.009999999776482582,
				0.009999999776482582
			]
		}
	],
	"materials":[
		{
			"doubleSided":true,
			"name":"WRJ_J7",
			"pbrMetallicRoughness":{
				"baseColorTexture":{
					"index":0
				},
				"metallicFactor":0,
				"roughnessFactor":0.5527864098548889
			}
		}
	],
	"meshes":[
		{
			"name":"\u7f51\u683c",
			"primitives":[
				{
					"attributes":{
						"POSITION":0,
						"NORMAL":1,
						"TEXCOORD_0":2
					},
					"indices":3,
					"material":0
				}
			]
		}
	],
	"textures":[
		{
			"sampler":0,
			"source":0
		}
	],
	"images":[
		{
			"mimeType":"image/jpeg",
			"name":"j6_",
			"uri":"j6_.jpg"
		}
	],
	"accessors":[
		{
			"bufferView":0,
			"componentType":5126,
			"count":3776,
			"max":[
				594.5963745117188,
				732.3887939453125,
				226.99862670898438
			],
			"min":[
				-594.5963745117188,
				-732.3887939453125,
				-226.9986114501953
			],
			"type":"VEC3"
		},
		{
			"bufferView":1,
			"componentType":5126,
			"count":3776,
			"type":"VEC3"
		},
		{
			"bufferView":2,
			"componentType":5126,
			"count":3776,
			"type":"VEC2"
		},
		{
			"bufferView":3,
			"componentType":5123,
			"count":16428,
			"type":"SCALAR"
		}
	],
	"bufferViews":[
		{
			"buffer":0,
			"byteLength":45312,
			"byteOffset":0,
			"target":34962
		},
		{
			"buffer":0,
			"byteLength":45312,
			"byteOffset":45312,
			"target":34962
		},
		{
			"buffer":0,
			"byteLength":30208,
			"byteOffset":90624,
			"target":34962
		},
		{
			"buffer":0,
			"byteLength":32856,
			"byteOffset":120832,
			"target":34963
		}
	],
	"samplers":[
		{
			"magFilter":9729,
			"minFilter":9987
		}
	],
	"buffers":[
		{
			"byteLength":153688,
			"uri":"j6w.bin"
		}
	]
}
