{
	"asset":{
		"generator":"Khronos glTF Blender I/O v4.4.56",
		"version":"2.0"
	},
	"extensionsUsed":[
		"KHR_materials_specular"
	],
	"scene":0,
	"scenes":[
		{
			"name":"Scene",
			"nodes":[
				0
			]
		}
	],
	"nodes":[
		{
			"mesh":0,
			"name":"CHJ_HWJ",
			"rotation":[
				0.7071068286895752,
				0,
				0,
				0.7071068286895752
			],
			"scale":[
				0.009999999776482582,
				0.009999999776482582,
				0.009999999776482582
			]
		}
	],
	"materials":[
		{
			"doubleSided":true,
			"extensions":{
				"KHR_materials_specular":{
					"specularColorFactor":[
						2.0,
						2.0,
						2.0
					]
				}
			},
			"name":"blinn1.006",
			"pbrMetallicRoughness":{
				"baseColorTexture":{
					"index":0
				},
				"metallicFactor":0.5,
				"roughnessFactor":0.7487671971321106
			}
		},
		{
			"doubleSided":true,
			"extensions":{
				"KHR_materials_specular":{
					"specularColorFactor":[
						2.0,
						2.0,
						2.0
					]
				}
			},
			"name":"blinn2.004",
			"pbrMetallicRoughness":{
				"baseColorTexture":{
					"index":1
				},
				"metallicFactor":0.5,
				"roughnessFactor":0.7487671971321106
			}
		},
		{
			"doubleSided":true,
			"extensions":{
				"KHR_materials_specular":{
					"specularColorFactor":[
						2.0,
						2.0,
						2.0
					]
				}
			},
			"name":"lambert2",
			"pbrMetallicRoughness":{
				"baseColorTexture":{
					"index":2
				},
				"roughnessFactor":0.5527864098548889
			}
		},
		{
			"doubleSided":true,
			"extensions":{
				"KHR_materials_specular":{
					"specularColorFactor":[
						2.0,
						2.0,
						2.0
					]
				}
			},
			"name":"lambert3",
			"pbrMetallicRoughness":{
				"baseColorTexture":{
					"index":3
				},
				"roughnessFactor":0.5527864098548889
			}
		},
		{
			"doubleSided":true,
			"extensions":{
				"KHR_materials_specular":{
					"specularColorFactor":[
						2.0,
						2.0,
						2.0
					]
				}
			},
			"name":"lambert4",
			"pbrMetallicRoughness":{
				"baseColorTexture":{
					"index":4
				},
				"roughnessFactor":0.5527864098548889
			}
		},
		{
			"doubleSided":true,
			"extensions":{
				"KHR_materials_specular":{
					"specularColorFactor":[
						2.0,
						2.0,
						2.0
					]
				}
			},
			"name":"lambert5",
			"pbrMetallicRoughness":{
				"baseColorTexture":{
					"index":5
				},
				"roughnessFactor":0.5527864098548889
			}
		},
		{
			"doubleSided":true,
			"extensions":{
				"KHR_materials_specular":{
					"specularColorFactor":[
						2.0,
						2.0,
						2.0
					]
				}
			},
			"name":"lambert6",
			"pbrMetallicRoughness":{
				"baseColorTexture":{
					"index":6
				},
				"roughnessFactor":0.5527864098548889
			}
		},
		{
			"alphaMode":"BLEND",
			"doubleSided":true,
			"extensions":{
				"KHR_materials_specular":{
					"specularColorFactor":[
						2.0,
						2.0,
						2.0
					]
				}
			},
			"name":"CGJ_HWJ_09",
			"pbrMetallicRoughness":{
				"baseColorTexture":{
					"index":7
				},
				"roughnessFactor":0.5527864098548889
			}
		}
	],
	"meshes":[
		{
			"name":"\u7f51\u683c.011",
			"primitives":[
				{
					"attributes":{
						"POSITION":0,
						"NORMAL":1,
						"TEXCOORD_0":2
					},
					"indices":3,
					"material":0
				},
				{
					"attributes":{
						"POSITION":4,
						"NORMAL":5,
						"TEXCOORD_0":6
					},
					"indices":7,
					"material":1
				},
				{
					"attributes":{
						"POSITION":8,
						"NORMAL":9,
						"TEXCOORD_0":10
					},
					"indices":11,
					"material":2
				},
				{
					"attributes":{
						"POSITION":12,
						"NORMAL":13,
						"TEXCOORD_0":14
					},
					"indices":15,
					"material":3
				},
				{
					"attributes":{
						"POSITION":16,
						"NORMAL":17,
						"TEXCOORD_0":18
					},
					"indices":19,
					"material":4
				},
				{
					"attributes":{
						"POSITION":20,
						"NORMAL":21,
						"TEXCOORD_0":22
					},
					"indices":23,
					"material":5
				},
				{
					"attributes":{
						"POSITION":24,
						"NORMAL":25,
						"TEXCOORD_0":26
					},
					"indices":27,
					"material":6
				},
				{
					"attributes":{
						"POSITION":28,
						"NORMAL":29,
						"TEXCOORD_0":30
					},
					"indices":31,
					"material":7
				}
			]
		}
	],
	"textures":[
		{
			"sampler":0,
			"source":0
		},
		{
			"sampler":0,
			"source":1
		},
		{
			"sampler":0,
			"source":2
		},
		{
			"sampler":0,
			"source":3
		},
		{
			"sampler":0,
			"source":4
		},
		{
			"sampler":0,
			"source":5
		},
		{
			"sampler":0,
			"source":6
		},
		{
			"sampler":0,
			"source":7
		}
	],
	"images":[
		{
			"mimeType":"image/jpeg",
			"name":"CGJ_HWJ_01",
			"uri":"CGJ_HWJ_01.jpg"
		},
		{
			"mimeType":"image/jpeg",
			"name":"CGJ_HWJ_02",
			"uri":"CGJ_HWJ_02.jpg"
		},
		{
			"mimeType":"image/jpeg",
			"name":"CGJ_HWJ_03",
			"uri":"CGJ_HWJ_03.jpg"
		},
		{
			"mimeType":"image/jpeg",
			"name":"CGJ_HWJ_05",
			"uri":"CGJ_HWJ_05.jpg"
		},
		{
			"mimeType":"image/jpeg",
			"name":"CGJ_HWJ_06",
			"uri":"CGJ_HWJ_06.jpg"
		},
		{
			"mimeType":"image/jpeg",
			"name":"CGJ_HWJ_07",
			"uri":"CGJ_HWJ_07.jpg"
		},
		{
			"mimeType":"image/png",
			"name":"CGJ_HWJ_08",
			"uri":"CGJ_HWJ_08.png"
		},
		{
			"mimeType":"image/png",
			"name":"CGJ_HWJ_09",
			"uri":"CGJ_HWJ_09.png"
		}
	],
	"accessors":[
		{
			"bufferView":0,
			"componentType":5126,
			"count":36,
			"max":[
				66.78009033203125,
				436.3720703125,
				46.26983642578125
			],
			"min":[
				-66.76483154296875,
				397.8857421875,
				35.65643310546875
			],
			"type":"VEC3"
		},
		{
			"bufferView":1,
			"componentType":5126,
			"count":36,
			"type":"VEC3"
		},
		{
			"bufferView":2,
			"componentType":5126,
			"count":36,
			"type":"VEC2"
		},
		{
			"bufferView":3,
			"componentType":5123,
			"count":54,
			"type":"SCALAR"
		},
		{
			"bufferView":4,
			"componentType":5126,
			"count":2620,
			"max":[
				107.205810546875,
				435.82763671875,
				157.803955078125
			],
			"min":[
				-107.205810546875,
				-648.0908203125,
				-53.18572998046875
			],
			"type":"VEC3"
		},
		{
			"bufferView":5,
			"componentType":5126,
			"count":2620,
			"type":"VEC3"
		},
		{
			"bufferView":6,
			"componentType":5126,
			"count":2620,
			"type":"VEC2"
		},
		{
			"bufferView":7,
			"componentType":5123,
			"count":6690,
			"type":"SCALAR"
		},
		{
			"bufferView":8,
			"componentType":5126,
			"count":5569,
			"max":[
				117.305908203125,
				384.0673828125,
				205.91064453125
			],
			"min":[
				-117.305908203125,
				-1027.6416015625,
				-247.79296875
			],
			"type":"VEC3"
		},
		{
			"bufferView":9,
			"componentType":5126,
			"count":5569,
			"type":"VEC3"
		},
		{
			"bufferView":10,
			"componentType":5126,
			"count":5569,
			"type":"VEC2"
		},
		{
			"bufferView":11,
			"componentType":5123,
			"count":9891,
			"type":"SCALAR"
		},
		{
			"bufferView":12,
			"componentType":5126,
			"count":11603,
			"max":[
				106.8096923828125,
				441.8115234375,
				158.057861328125
			],
			"min":[
				-106.8096923828125,
				-690.2587890625,
				-34.272308349609375
			],
			"type":"VEC3"
		},
		{
			"bufferView":13,
			"componentType":5126,
			"count":11603,
			"type":"VEC3"
		},
		{
			"bufferView":14,
			"componentType":5126,
			"count":11603,
			"type":"VEC2"
		},
		{
			"bufferView":15,
			"componentType":5123,
			"count":28788,
			"type":"SCALAR"
		},
		{
			"bufferView":16,
			"componentType":5126,
			"count":7288,
			"max":[
				106.771240234375,
				1054.0673828125,
				168.406982421875
			],
			"min":[
				-106.771240234375,
				-1035.3564453125,
				-28.668670654296875
			],
			"type":"VEC3"
		},
		{
			"bufferView":17,
			"componentType":5126,
			"count":7288,
			"type":"VEC3"
		},
		{
			"bufferView":18,
			"componentType":5126,
			"count":7288,
			"type":"VEC2"
		},
		{
			"bufferView":19,
			"componentType":5123,
			"count":19893,
			"type":"SCALAR"
		},
		{
			"bufferView":20,
			"componentType":5126,
			"count":3392,
			"max":[
				116.2579345703125,
				384.06494140625,
				206.246337890625
			],
			"min":[
				-116.2579345703125,
				-1054.0673828125,
				-267.928466796875
			],
			"type":"VEC3"
		},
		{
			"bufferView":21,
			"componentType":5126,
			"count":3392,
			"type":"VEC3"
		},
		{
			"bufferView":22,
			"componentType":5126,
			"count":3392,
			"type":"VEC2"
		},
		{
			"bufferView":23,
			"componentType":5123,
			"count":8166,
			"type":"SCALAR"
		},
		{
			"bufferView":24,
			"componentType":5126,
			"count":623,
			"max":[
				106.9586181640625,
				1054.0625,
				267.928466796875
			],
			"min":[
				-106.9586181640625,
				-1037.63671875,
				91.9012451171875
			],
			"type":"VEC3"
		},
		{
			"bufferView":25,
			"componentType":5126,
			"count":623,
			"type":"VEC3"
		},
		{
			"bufferView":26,
			"componentType":5126,
			"count":623,
			"type":"VEC2"
		},
		{
			"bufferView":27,
			"componentType":5123,
			"count":2010,
			"type":"SCALAR"
		},
		{
			"bufferView":28,
			"componentType":5126,
			"count":2792,
			"max":[
				108.78173828125,
				745.2880859375,
				167.611083984375
			],
			"min":[
				-108.78173828125,
				-1036.6796875,
				-225.628662109375
			],
			"type":"VEC3"
		},
		{
			"bufferView":29,
			"componentType":5126,
			"count":2792,
			"type":"VEC3"
		},
		{
			"bufferView":30,
			"componentType":5126,
			"count":2792,
			"type":"VEC2"
		},
		{
			"bufferView":31,
			"componentType":5123,
			"count":4452,
			"type":"SCALAR"
		}
	],
	"bufferViews":[
		{
			"buffer":0,
			"byteLength":432,
			"byteOffset":0,
			"target":34962
		},
		{
			"buffer":0,
			"byteLength":432,
			"byteOffset":432,
			"target":34962
		},
		{
			"buffer":0,
			"byteLength":288,
			"byteOffset":864,
			"target":34962
		},
		{
			"buffer":0,
			"byteLength":108,
			"byteOffset":1152,
			"target":34963
		},
		{
			"buffer":0,
			"byteLength":31440,
			"byteOffset":1260,
			"target":34962
		},
		{
			"buffer":0,
			"byteLength":31440,
			"byteOffset":32700,
			"target":34962
		},
		{
			"buffer":0,
			"byteLength":20960,
			"byteOffset":64140,
			"target":34962
		},
		{
			"buffer":0,
			"byteLength":13380,
			"byteOffset":85100,
			"target":34963
		},
		{
			"buffer":0,
			"byteLength":66828,
			"byteOffset":98480,
			"target":34962
		},
		{
			"buffer":0,
			"byteLength":66828,
			"byteOffset":165308,
			"target":34962
		},
		{
			"buffer":0,
			"byteLength":44552,
			"byteOffset":232136,
			"target":34962
		},
		{
			"buffer":0,
			"byteLength":19782,
			"byteOffset":276688,
			"target":34963
		},
		{
			"buffer":0,
			"byteLength":139236,
			"byteOffset":296472,
			"target":34962
		},
		{
			"buffer":0,
			"byteLength":139236,
			"byteOffset":435708,
			"target":34962
		},
		{
			"buffer":0,
			"byteLength":92824,
			"byteOffset":574944,
			"target":34962
		},
		{
			"buffer":0,
			"byteLength":57576,
			"byteOffset":667768,
			"target":34963
		},
		{
			"buffer":0,
			"byteLength":87456,
			"byteOffset":725344,
			"target":34962
		},
		{
			"buffer":0,
			"byteLength":87456,
			"byteOffset":812800,
			"target":34962
		},
		{
			"buffer":0,
			"byteLength":58304,
			"byteOffset":900256,
			"target":34962
		},
		{
			"buffer":0,
			"byteLength":39786,
			"byteOffset":958560,
			"target":34963
		},
		{
			"buffer":0,
			"byteLength":40704,
			"byteOffset":998348,
			"target":34962
		},
		{
			"buffer":0,
			"byteLength":40704,
			"byteOffset":1039052,
			"target":34962
		},
		{
			"buffer":0,
			"byteLength":27136,
			"byteOffset":1079756,
			"target":34962
		},
		{
			"buffer":0,
			"byteLength":16332,
			"byteOffset":1106892,
			"target":34963
		},
		{
			"buffer":0,
			"byteLength":7476,
			"byteOffset":1123224,
			"target":34962
		},
		{
			"buffer":0,
			"byteLength":7476,
			"byteOffset":1130700,
			"target":34962
		},
		{
			"buffer":0,
			"byteLength":4984,
			"byteOffset":1138176,
			"target":34962
		},
		{
			"buffer":0,
			"byteLength":4020,
			"byteOffset":1143160,
			"target":34963
		},
		{
			"buffer":0,
			"byteLength":33504,
			"byteOffset":1147180,
			"target":34962
		},
		{
			"buffer":0,
			"byteLength":33504,
			"byteOffset":1180684,
			"target":34962
		},
		{
			"buffer":0,
			"byteLength":22336,
			"byteOffset":1214188,
			"target":34962
		},
		{
			"buffer":0,
			"byteLength":8904,
			"byteOffset":1236524,
			"target":34963
		}
	],
	"samplers":[
		{
			"magFilter":9729,
			"minFilter":9987
		}
	],
	"buffers":[
		{
			"byteLength":1245428,
			"uri":"frigatecgc.bin"
		}
	]
}
