{
	"asset":{
		"generator":"Khronos glTF Blender I/O v4.4.56",
		"version":"2.0"
	},
	"extensionsUsed":[
		"KHR_materials_specular"
	],
	"scene":0,
	"scenes":[
		{
			"name":"Scene",
			"nodes":[
				0
			]
		}
	],
	"nodes":[
		{
			"mesh":0,
			"name":"HM_FT",
			"rotation":[
				0.7071068286895752,
				0,
				0,
				0.7071068286895752
			],
			"scale":[
				0.009999999776482582,
				0.009999999776482582,
				0.009999999776482582
			]
		}
	],
	"materials":[
		{
			"alphaMode":"BLEND",
			"doubleSided":true,
			"extensions":{
				"KHR_materials_specular":{
					"specularColorFactor":[
						2.0,
						2.0,
						2.0
					]
				}
			},
			"name":"blinn1.002",
			"pbrMetallicRoughness":{
				"baseColorTexture":{
					"index":0
				},
				"metallicFactor":0.5,
				"roughnessFactor":0.7487671971321106
			}
		},
		{
			"doubleSided":true,
			"extensions":{
				"KHR_materials_specular":{
					"specularColorFactor":[
						2.0,
						2.0,
						2.0
					]
				}
			},
			"name":"blinn2.001",
			"pbrMetallicRoughness":{
				"baseColorTexture":{
					"index":1
				},
				"metallicFactor":0.5,
				"roughnessFactor":0.7487671971321106
			}
		},
		{
			"doubleSided":true,
			"extensions":{
				"KHR_materials_specular":{
					"specularColorFactor":[
						2.0,
						2.0,
						2.0
					]
				}
			},
			"name":"blinn3",
			"pbrMetallicRoughness":{
				"baseColorTexture":{
					"index":2
				},
				"metallicFactor":0.5,
				"roughnessFactor":0.8532866835594177
			}
		}
	],
	"meshes":[
		{
			"name":"\u7f51\u683c.002",
			"primitives":[
				{
					"attributes":{
						"POSITION":0,
						"NORMAL":1,
						"TEXCOORD_0":2
					},
					"indices":3,
					"material":0
				},
				{
					"attributes":{
						"POSITION":4,
						"NORMAL":5,
						"TEXCOORD_0":6
					},
					"indices":7,
					"material":1
				},
				{
					"attributes":{
						"POSITION":8,
						"NORMAL":9,
						"TEXCOORD_0":10
					},
					"indices":11,
					"material":2
				}
			]
		}
	],
	"textures":[
		{
			"sampler":0,
			"source":0
		},
		{
			"sampler":0,
			"source":1
		},
		{
			"sampler":0,
			"source":2
		}
	],
	"images":[
		{
			"mimeType":"image/png",
			"name":"HM_FT_01",
			"uri":"HM_FT_01.png"
		},
		{
			"mimeType":"image/jpeg",
			"name":"HM_FT_02",
			"uri":"HM_FT_02.jpg"
		},
		{
			"mimeType":"image/jpeg",
			"name":"HM_FT_03",
			"uri":"HM_FT_03.jpg"
		}
	],
	"accessors":[
		{
			"bufferView":0,
			"componentType":5126,
			"count":4388,
			"max":[
				427.8348083496094,
				1685.12890625,
				257.6889343261719
			],
			"min":[
				-456.69805908203125,
				-1683.919921875,
				-324.4083251953125
			],
			"type":"VEC3"
		},
		{
			"bufferView":1,
			"componentType":5126,
			"count":4388,
			"type":"VEC3"
		},
		{
			"bufferView":2,
			"componentType":5126,
			"count":4388,
			"type":"VEC2"
		},
		{
			"bufferView":3,
			"componentType":5123,
			"count":7074,
			"type":"SCALAR"
		},
		{
			"bufferView":4,
			"componentType":5126,
			"count":30164,
			"max":[
				505.59820556640625,
				1665.050048828125,
				389.2056884765625
			],
			"min":[
				-505.59820556640625,
				-1685.12890625,
				-389.2056884765625
			],
			"type":"VEC3"
		},
		{
			"bufferView":5,
			"componentType":5126,
			"count":30164,
			"type":"VEC3"
		},
		{
			"bufferView":6,
			"componentType":5126,
			"count":30164,
			"type":"VEC2"
		},
		{
			"bufferView":7,
			"componentType":5123,
			"count":80394,
			"type":"SCALAR"
		},
		{
			"bufferView":8,
			"componentType":5126,
			"count":633,
			"max":[
				407.5013122558594,
				1665.050048828125,
				104.82239532470703
			],
			"min":[
				-378.1691589355469,
				-1673.5755615234375,
				85.44771575927734
			],
			"type":"VEC3"
		},
		{
			"bufferView":9,
			"componentType":5126,
			"count":633,
			"type":"VEC3"
		},
		{
			"bufferView":10,
			"componentType":5126,
			"count":633,
			"type":"VEC2"
		},
		{
			"bufferView":11,
			"componentType":5123,
			"count":1476,
			"type":"SCALAR"
		}
	],
	"bufferViews":[
		{
			"buffer":0,
			"byteLength":52656,
			"byteOffset":0,
			"target":34962
		},
		{
			"buffer":0,
			"byteLength":52656,
			"byteOffset":52656,
			"target":34962
		},
		{
			"buffer":0,
			"byteLength":35104,
			"byteOffset":105312,
			"target":34962
		},
		{
			"buffer":0,
			"byteLength":14148,
			"byteOffset":140416,
			"target":34963
		},
		{
			"buffer":0,
			"byteLength":361968,
			"byteOffset":154564,
			"target":34962
		},
		{
			"buffer":0,
			"byteLength":361968,
			"byteOffset":516532,
			"target":34962
		},
		{
			"buffer":0,
			"byteLength":241312,
			"byteOffset":878500,
			"target":34962
		},
		{
			"buffer":0,
			"byteLength":160788,
			"byteOffset":1119812,
			"target":34963
		},
		{
			"buffer":0,
			"byteLength":7596,
			"byteOffset":1280600,
			"target":34962
		},
		{
			"buffer":0,
			"byteLength":7596,
			"byteOffset":1288196,
			"target":34962
		},
		{
			"buffer":0,
			"byteLength":5064,
			"byteOffset":1295792,
			"target":34962
		},
		{
			"buffer":0,
			"byteLength":2952,
			"byteOffset":1300856,
			"target":34963
		}
	],
	"samplers":[
		{
			"magFilter":9729,
			"minFilter":9987
		}
	],
	"buffers":[
		{
			"byteLength":1303808,
			"uri":"ftjhm.bin"
		}
	]
}
