{
	"asset":{
		"generator":"Khronos glTF Blender I/O v4.4.56",
		"version":"2.0"
	},
	"scene":0,
	"scenes":[
		{
			"name":"Scene",
			"nodes":[
				0
			]
		}
	],
	"nodes":[
		{
			"mesh":0,
			"name":"LQGGJ_FHH",
			"rotation":[
				0.7071068286895752,
				0,
				0,
				0.7071068286895752
			],
			"scale":[
				0.009999999776482582,
				0.009999999776482582,
				0.009999999776482582
			]
		}
	],
	"materials":[
		{
			"doubleSided":true,
			"name":"LQGJJ",
			"pbrMetallicRoughness":{
				"baseColorTexture":{
					"index":0
				},
				"metallicFactor":0,
				"roughnessFactor":0.5527864098548889
			}
		}
	],
	"meshes":[
		{
			"name":"\u7f51\u683c.006",
			"primitives":[
				{
					"attributes":{
						"POSITION":0,
						"NORMAL":1,
						"TEXCOORD_0":2
					},
					"indices":3,
					"material":0
				}
			]
		}
	],
	"textures":[
		{
			"sampler":0,
			"source":0
		}
	],
	"images":[
		{
			"mimeType":"image/jpeg",
			"name":"LQGJJ_HFH",
			"uri":"LQGJJ_HFH.jpg"
		}
	],
	"accessors":[
		{
			"bufferView":0,
			"componentType":5126,
			"count":14454,
			"max":[
				381.03759765625,
				1274.140625,
				356.4404296875
			],
			"min":[
				-381.03759765625,
				-1274.140625,
				-356.4404296875
			],
			"type":"VEC3"
		},
		{
			"bufferView":1,
			"componentType":5126,
			"count":14454,
			"type":"VEC3"
		},
		{
			"bufferView":2,
			"componentType":5126,
			"count":14454,
			"type":"VEC2"
		},
		{
			"bufferView":3,
			"componentType":5123,
			"count":37620,
			"type":"SCALAR"
		}
	],
	"bufferViews":[
		{
			"buffer":0,
			"byteLength":173448,
			"byteOffset":0,
			"target":34962
		},
		{
			"buffer":0,
			"byteLength":173448,
			"byteOffset":173448,
			"target":34962
		},
		{
			"buffer":0,
			"byteLength":115632,
			"byteOffset":346896,
			"target":34962
		},
		{
			"buffer":0,
			"byteLength":75240,
			"byteOffset":462528,
			"target":34963
		}
	],
	"samplers":[
		{
			"magFilter":9729,
			"minFilter":9987
		}
	],
	"buffers":[
		{
			"byteLength":537768,
			"uri":"lqgjj.bin"
		}
	]
}
