{
	"asset":{
		"generator":"Khronos glTF Blender I/O v4.4.56",
		"version":"2.0"
	},
	"extensionsUsed":[
		"KHR_materials_specular"
	],
	"scene":0,
	"scenes":[
		{
			"name":"Scene",
			"nodes":[
				0
			]
		}
	],
	"nodes":[
		{
			"mesh":0,
			"name":"XYJ_TKDLJ",
			"rotation":[
				0.7071068286895752,
				0,
				0,
				0.7071068286895752
			],
			"scale":[
				0.009999999776482582,
				0.009999999776482582,
				0.009999999776482582
			]
		}
	],
	"materials":[
		{
			"doubleSided":true,
			"extensions":{
				"KHR_materials_specular":{
					"specularColorFactor":[
						2.0,
						2.0,
						2.0
					]
				}
			},
			"name":"blinn2.006",
			"pbrMetallicRoughness":{
				"baseColorFactor":[
					0.7622377872467041,
					0.7622377872467041,
					0.7622377872467041,
					1
				],
				"roughnessFactor":0.7487671971321106
			}
		},
		{
			"doubleSided":true,
			"extensions":{
				"KHR_materials_specular":{
					"specularColorFactor":[
						2.0,
						2.0,
						2.0
					]
				}
			},
			"name":"blinn3.004",
			"pbrMetallicRoughness":{
				"baseColorFactor":[
					0.2237762212753296,
					0.2237762212753296,
					0.2237762212753296,
					1
				],
				"roughnessFactor":0.7487671971321106
			}
		},
		{
			"doubleSided":true,
			"extensions":{
				"KHR_materials_specular":{
					"specularColorFactor":[
						2.0,
						2.0,
						2.0
					]
				}
			},
			"name":"blinn6",
			"pbrMetallicRoughness":{
				"baseColorFactor":[
					0.22404371201992035,
					0.22404371201992035,
					0.22404371201992035,
					1
				],
				"metallicFactor":0.5,
				"roughnessFactor":0.7487671971321106
			}
		},
		{
			"doubleSided":true,
			"extensions":{
				"KHR_materials_specular":{
					"specularColorFactor":[
						2.0,
						2.0,
						2.0
					]
				}
			},
			"name":"blinn1.009",
			"pbrMetallicRoughness":{
				"baseColorFactor":[
					0.0699300691485405,
					0.03148897364735603,
					0.032818060368299484,
					1
				],
				"metallicFactor":0.5,
				"roughnessFactor":0.7487671971321106
			}
		},
		{
			"alphaMode":"BLEND",
			"doubleSided":true,
			"extensions":{
				"KHR_materials_specular":{
					"specularColorFactor":[
						2.0,
						2.0,
						2.0
					]
				}
			},
			"name":"blinn5",
			"pbrMetallicRoughness":{
				"baseColorFactor":[
					0.19607844948768616,
					0.19607844948768616,
					0.19607844948768616,
					0.42000001668930054
				],
				"roughnessFactor":0.7487671971321106
			}
		}
	],
	"meshes":[
		{
			"name":"\u7f51\u683c.017",
			"primitives":[
				{
					"attributes":{
						"POSITION":0,
						"NORMAL":1,
						"TEXCOORD_0":2
					},
					"indices":3,
					"material":0
				},
				{
					"attributes":{
						"POSITION":4,
						"NORMAL":5,
						"TEXCOORD_0":6
					},
					"indices":7,
					"material":1
				},
				{
					"attributes":{
						"POSITION":8,
						"NORMAL":9,
						"TEXCOORD_0":10
					},
					"indices":11,
					"material":2
				},
				{
					"attributes":{
						"POSITION":12,
						"NORMAL":13,
						"TEXCOORD_0":14
					},
					"indices":15,
					"material":3
				},
				{
					"attributes":{
						"POSITION":16,
						"NORMAL":17,
						"TEXCOORD_0":18
					},
					"indices":19,
					"material":4
				}
			]
		}
	],
	"accessors":[
		{
			"bufferView":0,
			"componentType":5126,
			"count":21353,
			"max":[
				109.16259765625,
				1120.224609375,
				217.818603515625
			],
			"min":[
				-109.16259765625,
				-1120.224609375,
				-225.357666015625
			],
			"type":"VEC3"
		},
		{
			"bufferView":1,
			"componentType":5126,
			"count":21353,
			"type":"VEC3"
		},
		{
			"bufferView":2,
			"componentType":5126,
			"count":21353,
			"type":"VEC2"
		},
		{
			"bufferView":3,
			"componentType":5123,
			"count":35985,
			"type":"SCALAR"
		},
		{
			"bufferView":4,
			"componentType":5126,
			"count":3249,
			"max":[
				109.16259765625,
				1026.8212890625,
				363.49365234375
			],
			"min":[
				-109.16259765625,
				-1118.603515625,
				-222.158203125
			],
			"type":"VEC3"
		},
		{
			"bufferView":5,
			"componentType":5126,
			"count":3249,
			"type":"VEC3"
		},
		{
			"bufferView":6,
			"componentType":5126,
			"count":3249,
			"type":"VEC2"
		},
		{
			"bufferView":7,
			"componentType":5123,
			"count":8592,
			"type":"SCALAR"
		},
		{
			"bufferView":8,
			"componentType":5126,
			"count":12055,
			"max":[
				109.16259765625,
				1105.99609375,
				177.58544921875
			],
			"min":[
				-109.16259765625,
				-1120.224609375,
				-363.49365234375
			],
			"type":"VEC3"
		},
		{
			"bufferView":9,
			"componentType":5126,
			"count":12055,
			"type":"VEC3"
		},
		{
			"bufferView":10,
			"componentType":5126,
			"count":12055,
			"type":"VEC2"
		},
		{
			"bufferView":11,
			"componentType":5123,
			"count":21981,
			"type":"SCALAR"
		},
		{
			"bufferView":12,
			"componentType":5126,
			"count":3604,
			"max":[
				109.1802978515625,
				1012.802734375,
				357.16064453125
			],
			"min":[
				-109.1802978515625,
				-1111.640625,
				222.020263671875
			],
			"type":"VEC3"
		},
		{
			"bufferView":13,
			"componentType":5126,
			"count":3604,
			"type":"VEC3"
		},
		{
			"bufferView":14,
			"componentType":5126,
			"count":3604,
			"type":"VEC2"
		},
		{
			"bufferView":15,
			"componentType":5123,
			"count":5784,
			"type":"SCALAR"
		},
		{
			"bufferView":16,
			"componentType":5126,
			"count":112,
			"max":[
				100.0653076171875,
				406.0546875,
				59.39178466796875
			],
			"min":[
				-71.3824462890625,
				-124.8291015625,
				-75.5755615234375
			],
			"type":"VEC3"
		},
		{
			"bufferView":17,
			"componentType":5126,
			"count":112,
			"type":"VEC3"
		},
		{
			"bufferView":18,
			"componentType":5126,
			"count":112,
			"type":"VEC2"
		},
		{
			"bufferView":19,
			"componentType":5123,
			"count":192,
			"type":"SCALAR"
		}
	],
	"bufferViews":[
		{
			"buffer":0,
			"byteLength":256236,
			"byteOffset":0,
			"target":34962
		},
		{
			"buffer":0,
			"byteLength":256236,
			"byteOffset":256236,
			"target":34962
		},
		{
			"buffer":0,
			"byteLength":170824,
			"byteOffset":512472,
			"target":34962
		},
		{
			"buffer":0,
			"byteLength":71970,
			"byteOffset":683296,
			"target":34963
		},
		{
			"buffer":0,
			"byteLength":38988,
			"byteOffset":755268,
			"target":34962
		},
		{
			"buffer":0,
			"byteLength":38988,
			"byteOffset":794256,
			"target":34962
		},
		{
			"buffer":0,
			"byteLength":25992,
			"byteOffset":833244,
			"target":34962
		},
		{
			"buffer":0,
			"byteLength":17184,
			"byteOffset":859236,
			"target":34963
		},
		{
			"buffer":0,
			"byteLength":144660,
			"byteOffset":876420,
			"target":34962
		},
		{
			"buffer":0,
			"byteLength":144660,
			"byteOffset":1021080,
			"target":34962
		},
		{
			"buffer":0,
			"byteLength":96440,
			"byteOffset":1165740,
			"target":34962
		},
		{
			"buffer":0,
			"byteLength":43962,
			"byteOffset":1262180,
			"target":34963
		},
		{
			"buffer":0,
			"byteLength":43248,
			"byteOffset":1306144,
			"target":34962
		},
		{
			"buffer":0,
			"byteLength":43248,
			"byteOffset":1349392,
			"target":34962
		},
		{
			"buffer":0,
			"byteLength":28832,
			"byteOffset":1392640,
			"target":34962
		},
		{
			"buffer":0,
			"byteLength":11568,
			"byteOffset":1421472,
			"target":34963
		},
		{
			"buffer":0,
			"byteLength":1344,
			"byteOffset":1433040,
			"target":34962
		},
		{
			"buffer":0,
			"byteLength":1344,
			"byteOffset":1434384,
			"target":34962
		},
		{
			"buffer":0,
			"byteLength":896,
			"byteOffset":1435728,
			"target":34962
		},
		{
			"buffer":0,
			"byteLength":384,
			"byteOffset":1436624,
			"target":34963
		}
	],
	"buffers":[
		{
			"byteLength":1437008,
			"uri":"cruiserticonderoga.bin"
		}
	]
}
