{
	"asset":{
		"generator":"Khronos glTF Blender I/O v4.4.56",
		"version":"2.0"
	},
	"extensionsUsed":[
		"KHR_materials_specular"
	],
	"scene":0,
	"scenes":[
		{
			"name":"Scene",
			"nodes":[
				0
			]
		}
	],
	"nodes":[
		{
			"mesh":0,
			"name":"WRJ_GJ_11",
			"rotation":[
				0.7071068286895752,
				0,
				0,
				0.7071068286895752
			],
			"scale":[
				0.009999999776482582,
				0.009999999776482582,
				0.009999999776482582
			]
		}
	],
	"materials":[
		{
			"doubleSided":true,
			"extensions":{
				"KHR_materials_specular":{
					"specularColorFactor":[
						2.0,
						2.0,
						2.0
					]
				}
			},
			"name":"blinn1.002",
			"pbrMetallicRoughness":{
				"baseColorTexture":{
					"index":0
				},
				"metallicFactor":0.5,
				"roughnessFactor":0.7487671971321106
			}
		}
	],
	"meshes":[
		{
			"name":"\u7f51\u683c.005",
			"primitives":[
				{
					"attributes":{
						"POSITION":0,
						"NORMAL":1,
						"TEXCOORD_0":2,
						"TEXCOORD_1":3
					},
					"indices":4,
					"material":0
				}
			]
		}
	],
	"textures":[
		{
			"sampler":0,
			"source":0
		}
	],
	"images":[
		{
			"mimeType":"image/jpeg",
			"name":"GJ_11",
			"uri":"GJ_11.jpg"
		}
	],
	"accessors":[
		{
			"bufferView":0,
			"componentType":5126,
			"count":16072,
			"max":[
				646.1984252929688,
				525.733642578125,
				48.052791595458984
			],
			"min":[
				-646.1983642578125,
				-525.733642578125,
				-59.50961685180664
			],
			"type":"VEC3"
		},
		{
			"bufferView":1,
			"componentType":5126,
			"count":16072,
			"type":"VEC3"
		},
		{
			"bufferView":2,
			"componentType":5126,
			"count":16072,
			"type":"VEC2"
		},
		{
			"bufferView":3,
			"componentType":5126,
			"count":16072,
			"type":"VEC2"
		},
		{
			"bufferView":4,
			"componentType":5123,
			"count":90621,
			"type":"SCALAR"
		}
	],
	"bufferViews":[
		{
			"buffer":0,
			"byteLength":192864,
			"byteOffset":0,
			"target":34962
		},
		{
			"buffer":0,
			"byteLength":192864,
			"byteOffset":192864,
			"target":34962
		},
		{
			"buffer":0,
			"byteLength":128576,
			"byteOffset":385728,
			"target":34962
		},
		{
			"buffer":0,
			"byteLength":128576,
			"byteOffset":514304,
			"target":34962
		},
		{
			"buffer":0,
			"byteLength":181242,
			"byteOffset":642880,
			"target":34963
		}
	],
	"samplers":[
		{
			"magFilter":9729,
			"minFilter":9987
		}
	],
	"buffers":[
		{
			"byteLength":824124,
			"uri":"gj11.bin"
		}
	]
}
