{
	"asset":{
		"generator":"Khronos glTF Blender I/O v4.4.56",
		"version":"2.0"
	},
	"extensionsUsed":[
		"KHR_materials_specular"
	],
	"scene":0,
	"scenes":[
		{
			"name":"Scene",
			"nodes":[
				0
			]
		}
	],
	"nodes":[
		{
			"mesh":0,
			"name":"YL_6",
			"rotation":[
				0.7071068286895752,
				0,
				0,
				0.7071068286895752
			],
			"scale":[
				0.009999999776482582,
				0.009999999776482582,
				0.009999999776482582
			]
		}
	],
	"materials":[
		{
			"doubleSided":true,
			"extensions":{
				"KHR_materials_specular":{
					"specularColorFactor":[
						2.0,
						2.0,
						2.0
					]
				}
			},
			"name":"YL6_01",
			"pbrMetallicRoughness":{
				"baseColorTexture":{
					"index":0
				},
				"metallicFactor":0.5,
				"roughnessFactor":0.7487671971321106
			}
		}
	],
	"meshes":[
		{
			"name":"\u7f51\u683c.010",
			"primitives":[
				{
					"attributes":{
						"POSITION":0,
						"NORMAL":1,
						"TEXCOORD_0":2
					},
					"indices":3,
					"material":0
				}
			]
		}
	],
	"textures":[
		{
			"sampler":0,
			"source":0
		}
	],
	"images":[
		{
			"mimeType":"image/jpeg",
			"name":"YL6_01",
			"uri":"YL6_01.jpg"
		}
	],
	"accessors":[
		{
			"bufferView":0,
			"componentType":5126,
			"count":19659,
			"max":[
				1072.674560546875,
				496.8619384765625,
				152.5784912109375
			],
			"min":[
				-1072.674560546875,
				-576.0726318359375,
				-152.5784912109375
			],
			"type":"VEC3"
		},
		{
			"bufferView":1,
			"componentType":5126,
			"count":19659,
			"type":"VEC3"
		},
		{
			"bufferView":2,
			"componentType":5126,
			"count":19659,
			"type":"VEC2"
		},
		{
			"bufferView":3,
			"componentType":5123,
			"count":99954,
			"type":"SCALAR"
		}
	],
	"bufferViews":[
		{
			"buffer":0,
			"byteLength":235908,
			"byteOffset":0,
			"target":34962
		},
		{
			"buffer":0,
			"byteLength":235908,
			"byteOffset":235908,
			"target":34962
		},
		{
			"buffer":0,
			"byteLength":157272,
			"byteOffset":471816,
			"target":34962
		},
		{
			"buffer":0,
			"byteLength":199908,
			"byteOffset":629088,
			"target":34963
		}
	],
	"samplers":[
		{
			"magFilter":9729,
			"minFilter":9987
		}
	],
	"buffers":[
		{
			"byteLength":828996,
			"uri":"yl6.bin"
		}
	]
}
