{
	"asset":{
		"generator":"Khronos glTF Blender I/O v4.4.56",
		"version":"2.0"
	},
	"extensionsUsed":[
		"KHR_materials_specular"
	],
	"scene":0,
	"scenes":[
		{
			"name":"Scene",
			"nodes":[
				0
			]
		}
	],
	"nodes":[
		{
			"mesh":0,
			"name":"JLJ_QZJ",
			"rotation":[
				0.7071068286895752,
				0,
				0,
				0.7071068286895752
			],
			"scale":[
				0.009999999776482582,
				0.009999999776482582,
				0.009999999776482582
			]
		}
	],
	"materials":[
		{
			"doubleSided":true,
			"extensions":{
				"KHR_materials_specular":{
					"specularColorFactor":[
						2.0,
						2.0,
						2.0
					]
				}
			},
			"name":"blinn1.004",
			"pbrMetallicRoughness":{
				"baseColorTexture":{
					"index":0
				},
				"metallicFactor":0.5,
				"roughnessFactor":0.7487671971321106
			}
		}
	],
	"meshes":[
		{
			"name":"\u7f51\u683c.004",
			"primitives":[
				{
					"attributes":{
						"POSITION":0,
						"NORMAL":1,
						"TEXCOORD_0":2,
						"TEXCOORD_1":3
					},
					"indices":4,
					"material":0
				}
			]
		}
	],
	"textures":[
		{
			"sampler":0,
			"source":0
		}
	],
	"images":[
		{
			"mimeType":"image/jpeg",
			"name":"JLJ_QZJ_03",
			"uri":"JLJ_QZJ_03.jpg"
		}
	],
	"accessors":[
		{
			"bufferView":0,
			"componentType":5126,
			"count":32159,
			"max":[
				102.6996078491211,
				1010.6439819335938,
				289.07025146484375
			],
			"min":[
				-102.69954681396484,
				-1010.6439819335938,
				-346.32647705078125
			],
			"type":"VEC3"
		},
		{
			"bufferView":1,
			"componentType":5126,
			"count":32159,
			"type":"VEC3"
		},
		{
			"bufferView":2,
			"componentType":5126,
			"count":32159,
			"type":"VEC2"
		},
		{
			"bufferView":3,
			"componentType":5126,
			"count":32159,
			"type":"VEC2"
		},
		{
			"bufferView":4,
			"componentType":5123,
			"count":80070,
			"type":"SCALAR"
		}
	],
	"bufferViews":[
		{
			"buffer":0,
			"byteLength":385908,
			"byteOffset":0,
			"target":34962
		},
		{
			"buffer":0,
			"byteLength":385908,
			"byteOffset":385908,
			"target":34962
		},
		{
			"buffer":0,
			"byteLength":257272,
			"byteOffset":771816,
			"target":34962
		},
		{
			"buffer":0,
			"byteLength":257272,
			"byteOffset":1029088,
			"target":34962
		},
		{
			"buffer":0,
			"byteLength":160140,
			"byteOffset":1286360,
			"target":34963
		}
	],
	"samplers":[
		{
			"magFilter":9729,
			"minFilter":9987
		}
	],
	"buffers":[
		{
			"byteLength":1446500,
			"uri":"jljqzj.bin"
		}
	]
}
