{
	"asset":{
		"generator":"Khronos glTF Blender I/O v4.4.56",
		"version":"2.0"
	},
	"extensionsUsed":[
		"KHR_materials_specular"
	],
	"scene":0,
	"scenes":[
		{
			"name":"Scene",
			"nodes":[
				0
			]
		}
	],
	"nodes":[
		{
			"mesh":0,
			"name":"PyramidYuan",
			"rotation":[
				0.7071068286895752,
				0,
				0,
				0.7071068286895752
			],
			"scale":[
				0.009999999776482582,
				0.009999999776482582,
				0.009999999776482582
			]
		}
	],
	"materials":[
		{
			"alphaMode":"BLEND",
			"doubleSided":true,
			"extensions":{
				"KHR_materials_specular":{
					"specularColorFactor":[
						2.0,
						2.0,
						2.0
					]
				}
			},
			"name":"01 - Default1.001",
			"pbrMetallicRoughness":{
				"baseColorFactor":[
					1,
					1,
					1,
					0.10000002384185791
				],
				"roughnessFactor":0.858578622341156
			}
		}
	],
	"meshes":[
		{
			"name":"\u7f51\u683c.003",
			"primitives":[
				{
					"attributes":{
						"POSITION":0,
						"NORMAL":1,
						"TEXCOORD_0":2
					},
					"indices":3,
					"material":0
				}
			]
		}
	],
	"accessors":[
		{
			"bufferView":0,
			"componentType":5126,
			"count":1679,
			"max":[
				1000.0001220703125,
				1000.0003662109375,
				1000
			],
			"min":[
				-1000.000244140625,
				-1000.00048828125,
				-1000
			],
			"type":"VEC3"
		},
		{
			"bufferView":1,
			"componentType":5126,
			"count":1679,
			"type":"VEC3"
		},
		{
			"bufferView":2,
			"componentType":5126,
			"count":1679,
			"type":"VEC2"
		},
		{
			"bufferView":3,
			"componentType":5123,
			"count":9360,
			"type":"SCALAR"
		}
	],
	"bufferViews":[
		{
			"buffer":0,
			"byteLength":20148,
			"byteOffset":0,
			"target":34962
		},
		{
			"buffer":0,
			"byteLength":20148,
			"byteOffset":20148,
			"target":34962
		},
		{
			"buffer":0,
			"byteLength":13432,
			"byteOffset":40296,
			"target":34962
		},
		{
			"buffer":0,
			"byteLength":18720,
			"byteOffset":53728,
			"target":34963
		}
	],
	"buffers":[
		{
			"byteLength":72448,
			"uri":"pyramidqiu.bin"
		}
	]
}
