{
	"asset":{
		"generator":"Khronos glTF Blender I/O v4.4.56",
		"version":"2.0"
	},
	"extensionsUsed":[
		"KHR_materials_specular"
	],
	"scene":0,
	"scenes":[
		{
			"name":"Scene",
			"nodes":[
				0,
				1,
				2
			]
		}
	],
	"nodes":[
		{
			"mesh":0,
			"name":"Cone001",
			"rotation":[
				0.501581072807312,
				-0.4984116554260254,
				-0.49841395020484924,
				0.5015833377838135
			],
			"scale":[
				0.02539999410510063,
				0.02539999783039093,
				0.02539999783039093
			],
			"translation":[
				-0.00047813213313929737,
				-1.1176037332916167e-05,
				0
			]
		},
		{
			"name":"Helix001",
			"rotation":[
				0.70710688829422,
				0,
				0,
				0.7071066498756409
			],
			"scale":[
				0.02539999969303608,
				0.025400003418326378,
				0.025400003418326378
			]
		},
		{
			"mesh":1,
			"name":"Box001",
			"rotation":[
				0.70710688829422,
				0,
				0,
				0.7071066498756409
			],
			"scale":[
				0.02539999969303608,
				0.02539999783039093,
				0.02539999783039093
			],
			"translation":[
				0,
				-8.14509348856518e-06,
				50
			]
		}
	],
	"animations":[
		{
			"channels":[
				{
					"sampler":0,
					"target":{
						"node":0,
						"path":"translation"
					}
				},
				{
					"sampler":1,
					"target":{
						"node":0,
						"path":"rotation"
					}
				},
				{
					"sampler":2,
					"target":{
						"node":0,
						"path":"scale"
					}
				}
			],
			"name":"Cone001|Take 001|BaseLayer.001",
			"samplers":[
				{
					"input":8,
					"interpolation":"STEP",
					"output":9
				},
				{
					"input":10,
					"interpolation":"LINEAR",
					"output":11
				},
				{
					"input":8,
					"interpolation":"LINEAR",
					"output":12
				}
			]
		},
		{
			"channels":[
				{
					"sampler":0,
					"target":{
						"node":2,
						"path":"translation"
					}
				},
				{
					"sampler":1,
					"target":{
						"node":2,
						"path":"rotation"
					}
				},
				{
					"sampler":2,
					"target":{
						"node":2,
						"path":"scale"
					}
				}
			],
			"name":"Box001|Take 001|BaseLayer.001",
			"samplers":[
				{
					"input":10,
					"interpolation":"LINEAR",
					"output":13
				},
				{
					"input":8,
					"interpolation":"STEP",
					"output":14
				},
				{
					"input":8,
					"interpolation":"STEP",
					"output":15
				}
			]
		}
	],
	"materials":[
		{
			"doubleSided":true,
			"extensions":{
				"KHR_materials_specular":{
					"specularColorFactor":[
						2.0,
						2.0,
						2.0
					]
				}
			},
			"name":"01 - Default.004",
			"pbrMetallicRoughness":{
				"baseColorFactor":[
					1,
					0,
					0,
					1
				],
				"metallicFactor":0,
				"roughnessFactor":0.5527864098548889
			}
		}
	],
	"meshes":[
		{
			"name":"Mesh.002",
			"primitives":[
				{
					"attributes":{
						"POSITION":0,
						"NORMAL":1,
						"TEXCOORD_0":2
					},
					"indices":3,
					"material":0
				}
			]
		},
		{
			"name":"Mesh.003",
			"primitives":[
				{
					"attributes":{
						"POSITION":4,
						"NORMAL":5,
						"TEXCOORD_0":6
					},
					"indices":7
				}
			]
		}
	],
	"accessors":[
		{
			"bufferView":0,
			"componentType":5126,
			"count":40,
			"max":[
				3.9370079040527344,
				393.7007751464844,
				3.8771958351135254
			],
			"min":[
				-3.699577569961548,
				0,
				-3.8771960735321045
			],
			"type":"VEC3"
		},
		{
			"bufferView":1,
			"componentType":5126,
			"count":40,
			"type":"VEC3"
		},
		{
			"bufferView":2,
			"componentType":5126,
			"count":40,
			"type":"VEC2"
		},
		{
			"bufferView":3,
			"componentType":5123,
			"count":108,
			"type":"SCALAR"
		},
		{
			"bufferView":4,
			"componentType":5126,
			"count":24,
			"max":[
				0.47070789337158203,
				0.6276094913482666,
				0.6799101829528809
			],
			"min":[
				-0.47070789337158203,
				0,
				-0.6799101829528809
			],
			"type":"VEC3"
		},
		{
			"bufferView":5,
			"componentType":5126,
			"count":24,
			"type":"VEC3"
		},
		{
			"bufferView":6,
			"componentType":5126,
			"count":24,
			"type":"VEC2"
		},
		{
			"bufferView":7,
			"componentType":5123,
			"count":36,
			"type":"SCALAR"
		},
		{
			"bufferView":8,
			"componentType":5126,
			"count":2,
			"max":[
				33.333333333333336
			],
			"min":[
				0
			],
			"type":"SCALAR"
		},
		{
			"bufferView":9,
			"componentType":5126,
			"count":2,
			"type":"VEC3"
		},
		{
			"bufferView":10,
			"componentType":5126,
			"count":801,
			"max":[
				33.333333333333336
			],
			"min":[
				0
			],
			"type":"SCALAR"
		},
		{
			"bufferView":11,
			"componentType":5126,
			"count":801,
			"type":"VEC4"
		},
		{
			"bufferView":12,
			"componentType":5126,
			"count":2,
			"type":"VEC3"
		},
		{
			"bufferView":13,
			"componentType":5126,
			"count":801,
			"type":"VEC3"
		},
		{
			"bufferView":14,
			"componentType":5126,
			"count":2,
			"type":"VEC4"
		},
		{
			"bufferView":15,
			"componentType":5126,
			"count":2,
			"type":"VEC3"
		}
	],
	"bufferViews":[
		{
			"buffer":0,
			"byteLength":480,
			"byteOffset":0,
			"target":34962
		},
		{
			"buffer":0,
			"byteLength":480,
			"byteOffset":480,
			"target":34962
		},
		{
			"buffer":0,
			"byteLength":320,
			"byteOffset":960,
			"target":34962
		},
		{
			"buffer":0,
			"byteLength":216,
			"byteOffset":1280,
			"target":34963
		},
		{
			"buffer":0,
			"byteLength":288,
			"byteOffset":1496,
			"target":34962
		},
		{
			"buffer":0,
			"byteLength":288,
			"byteOffset":1784,
			"target":34962
		},
		{
			"buffer":0,
			"byteLength":192,
			"byteOffset":2072,
			"target":34962
		},
		{
			"buffer":0,
			"byteLength":72,
			"byteOffset":2264,
			"target":34963
		},
		{
			"buffer":0,
			"byteLength":8,
			"byteOffset":2336
		},
		{
			"buffer":0,
			"byteLength":24,
			"byteOffset":2344
		},
		{
			"buffer":0,
			"byteLength":3204,
			"byteOffset":2368
		},
		{
			"buffer":0,
			"byteLength":12816,
			"byteOffset":5572
		},
		{
			"buffer":0,
			"byteLength":24,
			"byteOffset":18388
		},
		{
			"buffer":0,
			"byteLength":9612,
			"byteOffset":18412
		},
		{
			"buffer":0,
			"byteLength":32,
			"byteOffset":28024
		},
		{
			"buffer":0,
			"byteLength":24,
			"byteOffset":28056
		}
	],
	"buffers":[
		{
			"byteLength":28080,
			"uri":"qiuboshu.bin"
		}
	]
}
