{
	"asset":{
		"generator":"Khronos glTF Blender I/O v4.4.56",
		"version":"2.0"
	},
	"extensionsUsed":[
		"KHR_materials_specular"
	],
	"scene":0,
	"scenes":[
		{
			"name":"Scene",
			"nodes":[
				0
			]
		}
	],
	"nodes":[
		{
			"mesh":0,
			"name":"WRJ_WZ10",
			"rotation":[
				0.7071068286895752,
				0,
				0,
				0.7071068286895752
			],
			"scale":[
				0.009999999776482582,
				0.009999999776482582,
				0.009999999776482582
			]
		}
	],
	"materials":[
		{
			"doubleSided":true,
			"extensions":{
				"KHR_materials_specular":{
					"specularColorFactor":[
						2.0,
						2.0,
						2.0
					]
				}
			},
			"name":"blinn1.005",
			"pbrMetallicRoughness":{
				"baseColorTexture":{
					"index":0
				},
				"metallicFactor":0.5,
				"roughnessFactor":0.7487671971321106
			}
		}
	],
	"meshes":[
		{
			"name":"\u7f51\u683c.008",
			"primitives":[
				{
					"attributes":{
						"POSITION":0,
						"NORMAL":1,
						"TEXCOORD_0":2
					},
					"indices":3,
					"material":0
				}
			]
		}
	],
	"textures":[
		{
			"sampler":0,
			"source":0
		}
	],
	"images":[
		{
			"mimeType":"image/jpeg",
			"name":"WRJ_WZ10_01",
			"uri":"WRJ_WZ10_01.jpg"
		}
	],
	"accessors":[
		{
			"bufferView":0,
			"componentType":5126,
			"count":19073,
			"max":[
				1472.554443359375,
				737.2308349609375,
				226.075439453125
			],
			"min":[
				-1472.554443359375,
				-737.2308349609375,
				-255.50445556640625
			],
			"type":"VEC3"
		},
		{
			"bufferView":1,
			"componentType":5126,
			"count":19073,
			"type":"VEC3"
		},
		{
			"bufferView":2,
			"componentType":5126,
			"count":19073,
			"type":"VEC2"
		},
		{
			"bufferView":3,
			"componentType":5123,
			"count":88590,
			"type":"SCALAR"
		}
	],
	"bufferViews":[
		{
			"buffer":0,
			"byteLength":228876,
			"byteOffset":0,
			"target":34962
		},
		{
			"buffer":0,
			"byteLength":228876,
			"byteOffset":228876,
			"target":34962
		},
		{
			"buffer":0,
			"byteLength":152584,
			"byteOffset":457752,
			"target":34962
		},
		{
			"buffer":0,
			"byteLength":177180,
			"byteOffset":610336,
			"target":34963
		}
	],
	"samplers":[
		{
			"magFilter":9729,
			"minFilter":9987
		}
	],
	"buffers":[
		{
			"byteLength":787516,
			"uri":"wz10.bin"
		}
	]
}
