{
	"asset":{
		"generator":"Khronos glTF Blender I/O v4.4.56",
		"version":"2.0"
	},
	"extensionsUsed":[
		"KHR_materials_specular"
	],
	"scene":0,
	"scenes":[
		{
			"name":"Scene",
			"nodes":[
				0
			]
		}
	],
	"nodes":[
		{
			"mesh":0,
			"name":"HM_NMZ",
			"rotation":[
				0.7071068286895752,
				0,
				0,
				0.7071068286895752
			],
			"scale":[
				0.009999999776482582,
				0.009999999776482582,
				0.009999999776482582
			]
		}
	],
	"materials":[
		{
			"doubleSided":true,
			"extensions":{
				"KHR_materials_specular":{
					"specularColorFactor":[
						2.0,
						2.0,
						2.0
					]
				}
			},
			"name":"NMZ_07",
			"pbrMetallicRoughness":{
				"baseColorTexture":{
					"index":0
				},
				"metallicFactor":0,
				"roughnessFactor":0.858578622341156
			}
		},
		{
			"doubleSided":true,
			"extensions":{
				"KHR_materials_specular":{
					"specularColorFactor":[
						2.0,
						2.0,
						2.0
					]
				}
			},
			"name":"NMZ_03",
			"pbrMetallicRoughness":{
				"baseColorTexture":{
					"index":1
				},
				"metallicFactor":0,
				"roughnessFactor":0.858578622341156
			}
		},
		{
			"doubleSided":true,
			"extensions":{
				"KHR_materials_specular":{
					"specularColorFactor":[
						2.0,
						2.0,
						2.0
					]
				}
			},
			"name":"NMZ_08",
			"pbrMetallicRoughness":{
				"baseColorTexture":{
					"index":2
				},
				"metallicFactor":0,
				"roughnessFactor":0.858578622341156
			}
		},
		{
			"doubleSided":true,
			"extensions":{
				"KHR_materials_specular":{
					"specularColorFactor":[
						2.0,
						2.0,
						2.0
					]
				}
			},
			"name":"NMZ_05",
			"pbrMetallicRoughness":{
				"baseColorTexture":{
					"index":3
				},
				"metallicFactor":0,
				"roughnessFactor":0.858578622341156
			}
		},
		{
			"doubleSided":true,
			"extensions":{
				"KHR_materials_specular":{
					"specularColorFactor":[
						2.0,
						2.0,
						2.0
					]
				}
			},
			"name":"NMZ_04",
			"pbrMetallicRoughness":{
				"baseColorTexture":{
					"index":4
				},
				"metallicFactor":0,
				"roughnessFactor":0.858578622341156
			}
		},
		{
			"doubleSided":true,
			"extensions":{
				"KHR_materials_specular":{
					"specularColorFactor":[
						2.0,
						2.0,
						2.0
					]
				}
			},
			"name":"NMZ_01",
			"pbrMetallicRoughness":{
				"baseColorTexture":{
					"index":5
				},
				"metallicFactor":0,
				"roughnessFactor":0.858578622341156
			}
		},
		{
			"doubleSided":true,
			"extensions":{
				"KHR_materials_specular":{
					"specularColorFactor":[
						2.0,
						2.0,
						2.0
					]
				}
			},
			"name":"NMZ_02",
			"pbrMetallicRoughness":{
				"baseColorTexture":{
					"index":6
				},
				"metallicFactor":0,
				"roughnessFactor":0.858578622341156
			}
		},
		{
			"doubleSided":true,
			"extensions":{
				"KHR_materials_specular":{
					"specularColorFactor":[
						2.0,
						2.0,
						2.0
					]
				}
			},
			"name":"NMZ_06",
			"pbrMetallicRoughness":{
				"baseColorTexture":{
					"index":7
				},
				"metallicFactor":0,
				"roughnessFactor":0.858578622341156
			}
		},
		{
			"doubleSided":true,
			"extensions":{
				"KHR_materials_specular":{
					"specularColorFactor":[
						2.0,
						2.0,
						2.0
					]
				}
			},
			"name":"Default_Material",
			"pbrMetallicRoughness":{
				"baseColorFactor":[
					0.5,
					0.5,
					0.5,
					1
				],
				"roughnessFactor":0.5527864098548889
			}
		},
		{
			"doubleSided":true,
			"extensions":{
				"KHR_materials_specular":{
					"specularColorFactor":[
						2.0,
						2.0,
						2.0
					]
				}
			},
			"name":"Material #53",
			"pbrMetallicRoughness":{
				"baseColorFactor":[
					0.9440559148788452,
					0.9440559148788452,
					0.9440559148788452,
					1
				],
				"metallicFactor":0,
				"roughnessFactor":0.858578622341156
			}
		}
	],
	"meshes":[
		{
			"name":"\u7f51\u683c.005",
			"primitives":[
				{
					"attributes":{
						"POSITION":0,
						"NORMAL":1,
						"TEXCOORD_0":2
					},
					"indices":3,
					"material":0
				},
				{
					"attributes":{
						"POSITION":4,
						"NORMAL":5,
						"TEXCOORD_0":6
					},
					"indices":7,
					"material":1
				},
				{
					"attributes":{
						"POSITION":8,
						"NORMAL":9,
						"TEXCOORD_0":10
					},
					"indices":11,
					"material":2
				},
				{
					"attributes":{
						"POSITION":12,
						"NORMAL":13,
						"TEXCOORD_0":14
					},
					"indices":15,
					"material":3
				},
				{
					"attributes":{
						"POSITION":16,
						"NORMAL":17,
						"TEXCOORD_0":18
					},
					"indices":19,
					"material":4
				},
				{
					"attributes":{
						"POSITION":20,
						"NORMAL":21,
						"TEXCOORD_0":22
					},
					"indices":23,
					"material":5
				},
				{
					"attributes":{
						"POSITION":24,
						"NORMAL":25,
						"TEXCOORD_0":26
					},
					"indices":27,
					"material":6
				},
				{
					"attributes":{
						"POSITION":28,
						"NORMAL":29,
						"TEXCOORD_0":30
					},
					"indices":31,
					"material":7
				},
				{
					"attributes":{
						"POSITION":32,
						"NORMAL":33,
						"TEXCOORD_0":34
					},
					"indices":35,
					"material":8
				},
				{
					"attributes":{
						"POSITION":36,
						"NORMAL":37,
						"TEXCOORD_0":38
					},
					"indices":39,
					"material":9
				}
			]
		}
	],
	"textures":[
		{
			"sampler":0,
			"source":0
		},
		{
			"sampler":0,
			"source":1
		},
		{
			"sampler":0,
			"source":2
		},
		{
			"sampler":0,
			"source":3
		},
		{
			"sampler":0,
			"source":4
		},
		{
			"sampler":0,
			"source":5
		},
		{
			"sampler":0,
			"source":6
		},
		{
			"sampler":0,
			"source":7
		}
	],
	"images":[
		{
			"mimeType":"image/jpeg",
			"name":"NMZ_07",
			"uri":"NMZ_07.jpg"
		},
		{
			"mimeType":"image/jpeg",
			"name":"NMZ_03",
			"uri":"NMZ_03.jpg"
		},
		{
			"mimeType":"image/jpeg",
			"name":"NMZ_08",
			"uri":"NMZ_08.jpg"
		},
		{
			"mimeType":"image/jpeg",
			"name":"NMZ_05",
			"uri":"NMZ_05.jpg"
		},
		{
			"mimeType":"image/jpeg",
			"name":"NMZ_04",
			"uri":"NMZ_04.jpg"
		},
		{
			"mimeType":"image/jpeg",
			"name":"NMZ_01",
			"uri":"NMZ_01.jpg"
		},
		{
			"mimeType":"image/jpeg",
			"name":"NMZ_02",
			"uri":"NMZ_02.jpg"
		},
		{
			"mimeType":"image/jpeg",
			"name":"NMZ_06",
			"uri":"NMZ_06.jpg"
		}
	],
	"accessors":[
		{
			"bufferView":0,
			"componentType":5126,
			"count":15795,
			"max":[
				447.8685607910156,
				1711.9588623046875,
				314.9431457519531
			],
			"min":[
				-417.465087890625,
				-1711.9576416015625,
				-106.87760925292969
			],
			"type":"VEC3"
		},
		{
			"bufferView":1,
			"componentType":5126,
			"count":15795,
			"type":"VEC3"
		},
		{
			"bufferView":2,
			"componentType":5126,
			"count":15795,
			"type":"VEC2"
		},
		{
			"bufferView":3,
			"componentType":5123,
			"count":24495,
			"type":"SCALAR"
		},
		{
			"bufferView":4,
			"componentType":5126,
			"count":192,
			"max":[
				378.5999755859375,
				1700.6480712890625,
				224.7559356689453
			],
			"min":[
				-382.3600158691406,
				-1692.216064453125,
				113.6364974975586
			],
			"type":"VEC3"
		},
		{
			"bufferView":5,
			"componentType":5126,
			"count":192,
			"type":"VEC3"
		},
		{
			"bufferView":6,
			"componentType":5126,
			"count":192,
			"type":"VEC2"
		},
		{
			"bufferView":7,
			"componentType":5123,
			"count":660,
			"type":"SCALAR"
		},
		{
			"bufferView":8,
			"componentType":5126,
			"count":5066,
			"max":[
				447.8685607910156,
				1711.9588623046875,
				314.9031677246094
			],
			"min":[
				-468.67999267578125,
				-1711.9588623046875,
				-76.80706787109375
			],
			"type":"VEC3"
		},
		{
			"bufferView":9,
			"componentType":5126,
			"count":5066,
			"type":"VEC3"
		},
		{
			"bufferView":10,
			"componentType":5126,
			"count":5066,
			"type":"VEC2"
		},
		{
			"bufferView":11,
			"componentType":5123,
			"count":8349,
			"type":"SCALAR"
		},
		{
			"bufferView":12,
			"componentType":5126,
			"count":10034,
			"max":[
				468.67999267578125,
				1710.4788818359375,
				314.9031677246094
			],
			"min":[
				-410.919921875,
				-1700.1119384765625,
				-115.7838134765625
			],
			"type":"VEC3"
		},
		{
			"bufferView":13,
			"componentType":5126,
			"count":10034,
			"type":"VEC3"
		},
		{
			"bufferView":14,
			"componentType":5126,
			"count":10034,
			"type":"VEC2"
		},
		{
			"bufferView":15,
			"componentType":5123,
			"count":16359,
			"type":"SCALAR"
		},
		{
			"bufferView":16,
			"componentType":5126,
			"count":9209,
			"max":[
				-222.4220733642578,
				-388.5209045410156,
				114.07681274414062
			],
			"min":[
				-417.4649963378906,
				-803.4810791015625,
				-306.89154052734375
			],
			"type":"VEC3"
		},
		{
			"bufferView":17,
			"componentType":5126,
			"count":9209,
			"type":"VEC3"
		},
		{
			"bufferView":18,
			"componentType":5126,
			"count":9209,
			"type":"VEC2"
		},
		{
			"bufferView":19,
			"componentType":5123,
			"count":12456,
			"type":"SCALAR"
		},
		{
			"bufferView":20,
			"componentType":5126,
			"count":694,
			"max":[
				317.2089538574219,
				437.06024169921875,
				118.53975677490234
			],
			"min":[
				-258.9381408691406,
				-800.311279296875,
				81.97222900390625
			],
			"type":"VEC3"
		},
		{
			"bufferView":21,
			"componentType":5126,
			"count":694,
			"type":"VEC3"
		},
		{
			"bufferView":22,
			"componentType":5126,
			"count":694,
			"type":"VEC2"
		},
		{
			"bufferView":23,
			"componentType":5123,
			"count":888,
			"type":"SCALAR"
		},
		{
			"bufferView":24,
			"componentType":5126,
			"count":174,
			"max":[
				316.9140319824219,
				1674.078857421875,
				113.69512176513672
			],
			"min":[
				-378.2210388183594,
				-799.8576049804688,
				-37.76940155029297
			],
			"type":"VEC3"
		},
		{
			"bufferView":25,
			"componentType":5126,
			"count":174,
			"type":"VEC3"
		},
		{
			"bufferView":26,
			"componentType":5126,
			"count":174,
			"type":"VEC2"
		},
		{
			"bufferView":27,
			"componentType":5123,
			"count":270,
			"type":"SCALAR"
		},
		{
			"bufferView":28,
			"componentType":5126,
			"count":6686,
			"max":[
				-210.22796630859375,
				-567.9865112304688,
				-57.90325927734375
			],
			"min":[
				-437.6738586425781,
				-680.3807983398438,
				-314.94317626953125
			],
			"type":"VEC3"
		},
		{
			"bufferView":29,
			"componentType":5126,
			"count":6686,
			"type":"VEC3"
		},
		{
			"bufferView":30,
			"componentType":5126,
			"count":6686,
			"type":"VEC2"
		},
		{
			"bufferView":31,
			"componentType":5123,
			"count":8496,
			"type":"SCALAR"
		},
		{
			"bufferView":32,
			"componentType":5126,
			"count":192,
			"max":[
				308.2952575683594,
				428.5777893066406,
				118.96205139160156
			],
			"min":[
				-244.34182739257812,
				-781.5618896484375,
				116.69386291503906
			],
			"type":"VEC3"
		},
		{
			"bufferView":33,
			"componentType":5126,
			"count":192,
			"type":"VEC3"
		},
		{
			"bufferView":34,
			"componentType":5126,
			"count":192,
			"type":"VEC2"
		},
		{
			"bufferView":35,
			"componentType":5123,
			"count":288,
			"type":"SCALAR"
		},
		{
			"bufferView":36,
			"componentType":5126,
			"count":710,
			"max":[
				375.4399719238281,
				1675.2186279296875,
				223.92672729492188
			],
			"min":[
				-323.58203125,
				-1666.8006591796875,
				110.64530181884766
			],
			"type":"VEC3"
		},
		{
			"bufferView":37,
			"componentType":5126,
			"count":710,
			"type":"VEC3"
		},
		{
			"bufferView":38,
			"componentType":5126,
			"count":710,
			"type":"VEC2"
		},
		{
			"bufferView":39,
			"componentType":5123,
			"count":1284,
			"type":"SCALAR"
		}
	],
	"bufferViews":[
		{
			"buffer":0,
			"byteLength":189540,
			"byteOffset":0,
			"target":34962
		},
		{
			"buffer":0,
			"byteLength":189540,
			"byteOffset":189540,
			"target":34962
		},
		{
			"buffer":0,
			"byteLength":126360,
			"byteOffset":379080,
			"target":34962
		},
		{
			"buffer":0,
			"byteLength":48990,
			"byteOffset":505440,
			"target":34963
		},
		{
			"buffer":0,
			"byteLength":2304,
			"byteOffset":554432,
			"target":34962
		},
		{
			"buffer":0,
			"byteLength":2304,
			"byteOffset":556736,
			"target":34962
		},
		{
			"buffer":0,
			"byteLength":1536,
			"byteOffset":559040,
			"target":34962
		},
		{
			"buffer":0,
			"byteLength":1320,
			"byteOffset":560576,
			"target":34963
		},
		{
			"buffer":0,
			"byteLength":60792,
			"byteOffset":561896,
			"target":34962
		},
		{
			"buffer":0,
			"byteLength":60792,
			"byteOffset":622688,
			"target":34962
		},
		{
			"buffer":0,
			"byteLength":40528,
			"byteOffset":683480,
			"target":34962
		},
		{
			"buffer":0,
			"byteLength":16698,
			"byteOffset":724008,
			"target":34963
		},
		{
			"buffer":0,
			"byteLength":120408,
			"byteOffset":740708,
			"target":34962
		},
		{
			"buffer":0,
			"byteLength":120408,
			"byteOffset":861116,
			"target":34962
		},
		{
			"buffer":0,
			"byteLength":80272,
			"byteOffset":981524,
			"target":34962
		},
		{
			"buffer":0,
			"byteLength":32718,
			"byteOffset":1061796,
			"target":34963
		},
		{
			"buffer":0,
			"byteLength":110508,
			"byteOffset":1094516,
			"target":34962
		},
		{
			"buffer":0,
			"byteLength":110508,
			"byteOffset":1205024,
			"target":34962
		},
		{
			"buffer":0,
			"byteLength":73672,
			"byteOffset":1315532,
			"target":34962
		},
		{
			"buffer":0,
			"byteLength":24912,
			"byteOffset":1389204,
			"target":34963
		},
		{
			"buffer":0,
			"byteLength":8328,
			"byteOffset":1414116,
			"target":34962
		},
		{
			"buffer":0,
			"byteLength":8328,
			"byteOffset":1422444,
			"target":34962
		},
		{
			"buffer":0,
			"byteLength":5552,
			"byteOffset":1430772,
			"target":34962
		},
		{
			"buffer":0,
			"byteLength":1776,
			"byteOffset":1436324,
			"target":34963
		},
		{
			"buffer":0,
			"byteLength":2088,
			"byteOffset":1438100,
			"target":34962
		},
		{
			"buffer":0,
			"byteLength":2088,
			"byteOffset":1440188,
			"target":34962
		},
		{
			"buffer":0,
			"byteLength":1392,
			"byteOffset":1442276,
			"target":34962
		},
		{
			"buffer":0,
			"byteLength":540,
			"byteOffset":1443668,
			"target":34963
		},
		{
			"buffer":0,
			"byteLength":80232,
			"byteOffset":1444208,
			"target":34962
		},
		{
			"buffer":0,
			"byteLength":80232,
			"byteOffset":1524440,
			"target":34962
		},
		{
			"buffer":0,
			"byteLength":53488,
			"byteOffset":1604672,
			"target":34962
		},
		{
			"buffer":0,
			"byteLength":16992,
			"byteOffset":1658160,
			"target":34963
		},
		{
			"buffer":0,
			"byteLength":2304,
			"byteOffset":1675152,
			"target":34962
		},
		{
			"buffer":0,
			"byteLength":2304,
			"byteOffset":1677456,
			"target":34962
		},
		{
			"buffer":0,
			"byteLength":1536,
			"byteOffset":1679760,
			"target":34962
		},
		{
			"buffer":0,
			"byteLength":576,
			"byteOffset":1681296,
			"target":34963
		},
		{
			"buffer":0,
			"byteLength":8520,
			"byteOffset":1681872,
			"target":34962
		},
		{
			"buffer":0,
			"byteLength":8520,
			"byteOffset":1690392,
			"target":34962
		},
		{
			"buffer":0,
			"byteLength":5680,
			"byteOffset":1698912,
			"target":34962
		},
		{
			"buffer":0,
			"byteLength":2568,
			"byteOffset":1704592,
			"target":34963
		}
	],
	"samplers":[
		{
			"magFilter":9729,
			"minFilter":9987
		}
	],
	"buffers":[
		{
			"byteLength":1707160,
			"uri":"acnimitz.bin"
		}
	]
}
