{
	"asset":{
		"generator":"Khronos glTF Blender I/O v4.4.56",
		"version":"2.0"
	},
	"scene":0,
	"scenes":[
		{
			"name":"Scene",
			"nodes":[
				0
			]
		}
	],
	"nodes":[
		{
			"mesh":0,
			"name":"C350A",
			"rotation":[
				0.7071068286895752,
				0,
				0,
				0.7071068286895752
			],
			"scale":[
				0.009999999776482582,
				0.009999999776482582,
				0.009999999776482582
			]
		}
	],
	"materials":[
		{
			"doubleSided":true,
			"name":"C350A_1",
			"pbrMetallicRoughness":{
				"baseColorFactor":[
					0.8258064389228821,
					0.8258064389228821,
					0.8258064389228821,
					1
				],
				"metallicFactor":0,
				"roughnessFactor":0.5527864098548889
			}
		},
		{
			"doubleSided":true,
			"name":"C350A_2",
			"pbrMetallicRoughness":{
				"baseColorFactor":[
					0.15846994519233704,
					0.15846994519233704,
					0.15846994519233704,
					1
				],
				"metallicFactor":0,
				"roughnessFactor":0.5527864098548889
			}
		}
	],
	"meshes":[
		{
			"name":"\u7f51\u683c",
			"primitives":[
				{
					"attributes":{
						"POSITION":0,
						"NORMAL":1,
						"TEXCOORD_0":2
					},
					"indices":3,
					"material":0
				},
				{
					"attributes":{
						"POSITION":4,
						"NORMAL":5,
						"TEXCOORD_0":6
					},
					"indices":7,
					"material":1
				}
			]
		}
	],
	"accessors":[
		{
			"bufferView":0,
			"componentType":5126,
			"count":15040,
			"max":[
				1057.1536865234375,
				793.51123046875,
				183.37049865722656
			],
			"min":[
				-1057.1536865234375,
				-745.355224609375,
				-183.37049865722656
			],
			"type":"VEC3"
		},
		{
			"bufferView":1,
			"componentType":5126,
			"count":15040,
			"type":"VEC3"
		},
		{
			"bufferView":2,
			"componentType":5126,
			"count":15040,
			"type":"VEC2"
		},
		{
			"bufferView":3,
			"componentType":5123,
			"count":41046,
			"type":"SCALAR"
		},
		{
			"bufferView":4,
			"componentType":5126,
			"count":648,
			"max":[
				123.7862319946289,
				-725.7569580078125,
				130.21121215820312
			],
			"min":[
				-123.54107666015625,
				-793.5112915039062,
				-84.56144714355469
			],
			"type":"VEC3"
		},
		{
			"bufferView":5,
			"componentType":5126,
			"count":648,
			"type":"VEC3"
		},
		{
			"bufferView":6,
			"componentType":5126,
			"count":648,
			"type":"VEC2"
		},
		{
			"bufferView":7,
			"componentType":5123,
			"count":1986,
			"type":"SCALAR"
		}
	],
	"bufferViews":[
		{
			"buffer":0,
			"byteLength":180480,
			"byteOffset":0,
			"target":34962
		},
		{
			"buffer":0,
			"byteLength":180480,
			"byteOffset":180480,
			"target":34962
		},
		{
			"buffer":0,
			"byteLength":120320,
			"byteOffset":360960,
			"target":34962
		},
		{
			"buffer":0,
			"byteLength":82092,
			"byteOffset":481280,
			"target":34963
		},
		{
			"buffer":0,
			"byteLength":7776,
			"byteOffset":563372,
			"target":34962
		},
		{
			"buffer":0,
			"byteLength":7776,
			"byteOffset":571148,
			"target":34962
		},
		{
			"buffer":0,
			"byteLength":5184,
			"byteOffset":578924,
			"target":34962
		},
		{
			"buffer":0,
			"byteLength":3972,
			"byteOffset":584108,
			"target":34963
		}
	],
	"buffers":[
		{
			"byteLength":588080,
			"uri":"cs350a.bin"
		}
	]
}
