{
	"asset":{
		"generator":"Khronos glTF Blender I/O v4.4.56",
		"version":"2.0"
	},
	"extensionsUsed":[
		"KHR_materials_specular"
	],
	"scene":0,
	"scenes":[
		{
			"name":"Scene",
			"nodes":[
				0
			]
		}
	],
	"nodes":[
		{
			"mesh":0,
			"name":"TW_HY2000",
			"rotation":[
				0.7071068286895752,
				0,
				0,
				0.7071068286895752
			],
			"scale":[
				0.009999999776482582,
				0.009999999776482582,
				0.009999999776482582
			]
		}
	],
	"materials":[
		{
			"doubleSided":true,
			"extensions":{
				"KHR_materials_specular":{
					"specularColorFactor":[
						2.0,
						2.0,
						2.0
					]
				}
			},
			"name":"blinn1.003",
			"pbrMetallicRoughness":{
				"baseColorTexture":{
					"index":0
				},
				"metallicFactor":0.5,
				"roughnessFactor":0.7487671971321106
			}
		}
	],
	"meshes":[
		{
			"name":"\u7f51\u683c.006",
			"primitives":[
				{
					"attributes":{
						"POSITION":0,
						"NORMAL":1,
						"TEXCOORD_0":2
					},
					"indices":3,
					"material":0
				}
			]
		}
	],
	"textures":[
		{
			"sampler":0,
			"source":0
		}
	],
	"images":[
		{
			"mimeType":"image/jpeg",
			"name":"TW_HY2000",
			"uri":"TW_HY2000.jpg"
		}
	],
	"accessors":[
		{
			"bufferView":0,
			"componentType":5126,
			"count":86260,
			"max":[
				469.83282470703125,
				750.9664306640625,
				259.7989196777344
			],
			"min":[
				-469.83282470703125,
				-750.9664306640625,
				-259.7989196777344
			],
			"type":"VEC3"
		},
		{
			"bufferView":1,
			"componentType":5126,
			"count":86260,
			"type":"VEC3"
		},
		{
			"bufferView":2,
			"componentType":5126,
			"count":86260,
			"type":"VEC2"
		},
		{
			"bufferView":3,
			"componentType":5125,
			"count":156741,
			"type":"SCALAR"
		}
	],
	"bufferViews":[
		{
			"buffer":0,
			"byteLength":1035120,
			"byteOffset":0,
			"target":34962
		},
		{
			"buffer":0,
			"byteLength":1035120,
			"byteOffset":1035120,
			"target":34962
		},
		{
			"buffer":0,
			"byteLength":690080,
			"byteOffset":2070240,
			"target":34962
		},
		{
			"buffer":0,
			"byteLength":626964,
			"byteOffset":2760320,
			"target":34963
		}
	],
	"samplers":[
		{
			"magFilter":9729,
			"minFilter":9987
		}
	],
	"buffers":[
		{
			"byteLength":3387284,
			"uri":"hy2000.bin"
		}
	]
}
