{
	"asset":{
		"generator":"Khronos glTF Blender I/O v4.4.56",
		"version":"2.0"
	},
	"extensionsUsed":[
		"KHR_materials_specular"
	],
	"scene":0,
	"scenes":[
		{
			"name":"Scene",
			"nodes":[
				0
			]
		}
	],
	"nodes":[
		{
			"mesh":0,
			"name":"YJJ_CH130",
			"rotation":[
				0.7071068286895752,
				0,
				0,
				0.7071068286895752
			],
			"scale":[
				0.009999999776482582,
				0.009999999776482582,
				0.009999999776482582
			]
		}
	],
	"materials":[
		{
			"doubleSided":true,
			"extensions":{
				"KHR_materials_specular":{
					"specularColorFactor":[
						2.0,
						2.0,
						2.0
					]
				}
			},
			"name":"CH130_2",
			"pbrMetallicRoughness":{
				"baseColorFactor":[
					0.11089999973773956,
					0.13040000200271606,
					0.14139999449253082,
					1
				],
				"metallicFactor":0.5,
				"roughnessFactor":0.7487671971321106
			}
		},
		{
			"doubleSided":true,
			"extensions":{
				"KHR_materials_specular":{
					"specularColorFactor":[
						2.0,
						2.0,
						2.0
					]
				}
			},
			"name":"CH130_1",
			"pbrMetallicRoughness":{
				"baseColorTexture":{
					"index":0
				},
				"metallicFactor":0.5,
				"roughnessFactor":0.7487671971321106
			}
		}
	],
	"meshes":[
		{
			"name":"\u7f51\u683c.011",
			"primitives":[
				{
					"attributes":{
						"POSITION":0,
						"NORMAL":1,
						"TEXCOORD_0":2,
						"TEXCOORD_1":3,
						"TEXCOORD_2":4,
						"COLOR_0":5,
						"COLOR_1":6
					},
					"indices":7,
					"material":0
				},
				{
					"attributes":{
						"POSITION":8,
						"NORMAL":9,
						"TEXCOORD_0":10,
						"TEXCOORD_1":11,
						"TEXCOORD_2":12,
						"COLOR_0":13,
						"COLOR_1":14
					},
					"indices":15,
					"material":1
				}
			]
		}
	],
	"textures":[
		{
			"sampler":0,
			"source":0
		}
	],
	"images":[
		{
			"mimeType":"image/jpeg",
			"name":"YJJ_C130H_01_L",
			"uri":"YJJ_C130H_01_L.jpg"
		}
	],
	"accessors":[
		{
			"bufferView":0,
			"componentType":5126,
			"count":334,
			"max":[
				150.177001953125,
				968.56689453125,
				296.17333984375
			],
			"min":[
				-149.69635009765625,
				-177.36053466796875,
				136.5167999267578
			],
			"type":"VEC3"
		},
		{
			"bufferView":1,
			"componentType":5126,
			"count":334,
			"type":"VEC3"
		},
		{
			"bufferView":2,
			"componentType":5126,
			"count":334,
			"type":"VEC2"
		},
		{
			"bufferView":3,
			"componentType":5126,
			"count":334,
			"type":"VEC2"
		},
		{
			"bufferView":4,
			"componentType":5126,
			"count":334,
			"type":"VEC2"
		},
		{
			"bufferView":5,
			"componentType":5121,
			"count":334,
			"normalized":true,
			"type":"VEC4"
		},
		{
			"bufferView":6,
			"componentType":5123,
			"count":334,
			"normalized":true,
			"type":"VEC4"
		},
		{
			"bufferView":7,
			"componentType":5123,
			"count":540,
			"type":"SCALAR"
		},
		{
			"bufferView":8,
			"componentType":5126,
			"count":6063,
			"max":[
				1401.26025390625,
				1056.15234375,
				401.9200744628906
			],
			"min":[
				-1401.2601318359375,
				-1056.15234375,
				-401.9200439453125
			],
			"type":"VEC3"
		},
		{
			"bufferView":9,
			"componentType":5126,
			"count":6063,
			"type":"VEC3"
		},
		{
			"bufferView":10,
			"componentType":5126,
			"count":6063,
			"type":"VEC2"
		},
		{
			"bufferView":11,
			"componentType":5126,
			"count":6063,
			"type":"VEC2"
		},
		{
			"bufferView":12,
			"componentType":5126,
			"count":6063,
			"type":"VEC2"
		},
		{
			"bufferView":13,
			"componentType":5121,
			"count":6063,
			"normalized":true,
			"type":"VEC4"
		},
		{
			"bufferView":14,
			"componentType":5123,
			"count":6063,
			"normalized":true,
			"type":"VEC4"
		},
		{
			"bufferView":15,
			"componentType":5123,
			"count":17739,
			"type":"SCALAR"
		}
	],
	"bufferViews":[
		{
			"buffer":0,
			"byteLength":4008,
			"byteOffset":0,
			"target":34962
		},
		{
			"buffer":0,
			"byteLength":4008,
			"byteOffset":4008,
			"target":34962
		},
		{
			"buffer":0,
			"byteLength":2672,
			"byteOffset":8016,
			"target":34962
		},
		{
			"buffer":0,
			"byteLength":2672,
			"byteOffset":10688,
			"target":34962
		},
		{
			"buffer":0,
			"byteLength":2672,
			"byteOffset":13360,
			"target":34962
		},
		{
			"buffer":0,
			"byteLength":1336,
			"byteOffset":16032,
			"target":34962
		},
		{
			"buffer":0,
			"byteLength":2672,
			"byteOffset":17368,
			"target":34962
		},
		{
			"buffer":0,
			"byteLength":1080,
			"byteOffset":20040,
			"target":34963
		},
		{
			"buffer":0,
			"byteLength":72756,
			"byteOffset":21120,
			"target":34962
		},
		{
			"buffer":0,
			"byteLength":72756,
			"byteOffset":93876,
			"target":34962
		},
		{
			"buffer":0,
			"byteLength":48504,
			"byteOffset":166632,
			"target":34962
		},
		{
			"buffer":0,
			"byteLength":48504,
			"byteOffset":215136,
			"target":34962
		},
		{
			"buffer":0,
			"byteLength":48504,
			"byteOffset":263640,
			"target":34962
		},
		{
			"buffer":0,
			"byteLength":24252,
			"byteOffset":312144,
			"target":34962
		},
		{
			"buffer":0,
			"byteLength":48504,
			"byteOffset":336396,
			"target":34962
		},
		{
			"buffer":0,
			"byteLength":35478,
			"byteOffset":384900,
			"target":34963
		}
	],
	"samplers":[
		{
			"magFilter":9729,
			"minFilter":9987
		}
	],
	"buffers":[
		{
			"byteLength":420380,
			"uri":"ch130.bin"
		}
	]
}
