{
	"asset":{
		"generator":"Khronos glTF Blender I/O v4.4.56",
		"version":"2.0"
	},
	"extensionsUsed":[
		"KHR_materials_specular"
	],
	"scene":0,
	"scenes":[
		{
			"name":"Scene",
			"nodes":[
				0
			]
		}
	],
	"nodes":[
		{
			"mesh":0,
			"name":"E2_YJJ",
			"rotation":[
				0.7071068286895752,
				0,
				0,
				0.7071068286895752
			],
			"scale":[
				0.009999999776482582,
				0.009999999776482582,
				0.009999999776482582
			]
		}
	],
	"materials":[
		{
			"doubleSided":true,
			"extensions":{
				"KHR_materials_specular":{
					"specularColorFactor":[
						2.0,
						2.0,
						2.0
					]
				}
			},
			"name":"blinn2.002",
			"pbrMetallicRoughness":{
				"baseColorTexture":{
					"index":0
				},
				"metallicFactor":0.5,
				"roughnessFactor":0.7487671971321106
			}
		},
		{
			"doubleSided":true,
			"extensions":{
				"KHR_materials_specular":{
					"specularColorFactor":[
						2.0,
						2.0,
						2.0
					]
				}
			},
			"name":"blinn1.003",
			"pbrMetallicRoughness":{
				"baseColorTexture":{
					"index":1
				},
				"metallicFactor":0.5,
				"roughnessFactor":0.7487671971321106
			}
		},
		{
			"doubleSided":true,
			"extensions":{
				"KHR_materials_specular":{
					"specularColorFactor":[
						2.0,
						2.0,
						2.0
					]
				}
			},
			"name":"blinn3.002",
			"pbrMetallicRoughness":{
				"baseColorTexture":{
					"index":2
				},
				"metallicFactor":0.5,
				"roughnessFactor":0.7487671971321106
			}
		}
	],
	"meshes":[
		{
			"name":"\u7f51\u683c.007",
			"primitives":[
				{
					"attributes":{
						"POSITION":0,
						"NORMAL":1,
						"TEXCOORD_0":2
					},
					"indices":3,
					"material":0
				},
				{
					"attributes":{
						"POSITION":4,
						"NORMAL":5,
						"TEXCOORD_0":6
					},
					"indices":7,
					"material":1
				},
				{
					"attributes":{
						"POSITION":8,
						"NORMAL":9,
						"TEXCOORD_0":10
					},
					"indices":11,
					"material":2
				}
			]
		}
	],
	"textures":[
		{
			"sampler":0,
			"source":0
		},
		{
			"sampler":0,
			"source":1
		},
		{
			"sampler":0,
			"source":2
		}
	],
	"images":[
		{
			"mimeType":"image/jpeg",
			"name":"E2_YJJ_02",
			"uri":"E2_YJJ_02.jpg"
		},
		{
			"mimeType":"image/jpeg",
			"name":"E2_YJJ_01",
			"uri":"E2_YJJ_01.jpg"
		},
		{
			"mimeType":"image/jpeg",
			"name":"E2_YJJ_04",
			"uri":"E2_YJJ_04.jpg"
		}
	],
	"accessors":[
		{
			"bufferView":0,
			"componentType":5126,
			"count":16945,
			"max":[
				1221.1767578125,
				902.7606201171875,
				229.6201171875
			],
			"min":[
				-1221.1767578125,
				-883.902587890625,
				-174.2635498046875
			],
			"type":"VEC3"
		},
		{
			"bufferView":1,
			"componentType":5126,
			"count":16945,
			"type":"VEC3"
		},
		{
			"bufferView":2,
			"componentType":5126,
			"count":16945,
			"type":"VEC2"
		},
		{
			"bufferView":3,
			"componentType":5123,
			"count":55905,
			"type":"SCALAR"
		},
		{
			"bufferView":4,
			"componentType":5126,
			"count":30425,
			"max":[
				1149.613037109375,
				791.95556640625,
				246.69822692871094
			],
			"min":[
				-1149.600830078125,
				-902.7606201171875,
				-293.186279296875
			],
			"type":"VEC3"
		},
		{
			"bufferView":5,
			"componentType":5126,
			"count":30425,
			"type":"VEC3"
		},
		{
			"bufferView":6,
			"componentType":5126,
			"count":30425,
			"type":"VEC2"
		},
		{
			"bufferView":7,
			"componentType":5123,
			"count":78213,
			"type":"SCALAR"
		},
		{
			"bufferView":8,
			"componentType":5126,
			"count":1870,
			"max":[
				1215.44189453125,
				884.2449951171875,
				178.622802734375
			],
			"min":[
				-1215.43701171875,
				-283.56475830078125,
				-49.62361145019531
			],
			"type":"VEC3"
		},
		{
			"bufferView":9,
			"componentType":5126,
			"count":1870,
			"type":"VEC3"
		},
		{
			"bufferView":10,
			"componentType":5126,
			"count":1870,
			"type":"VEC2"
		},
		{
			"bufferView":11,
			"componentType":5123,
			"count":6318,
			"type":"SCALAR"
		}
	],
	"bufferViews":[
		{
			"buffer":0,
			"byteLength":203340,
			"byteOffset":0,
			"target":34962
		},
		{
			"buffer":0,
			"byteLength":203340,
			"byteOffset":203340,
			"target":34962
		},
		{
			"buffer":0,
			"byteLength":135560,
			"byteOffset":406680,
			"target":34962
		},
		{
			"buffer":0,
			"byteLength":111810,
			"byteOffset":542240,
			"target":34963
		},
		{
			"buffer":0,
			"byteLength":365100,
			"byteOffset":654052,
			"target":34962
		},
		{
			"buffer":0,
			"byteLength":365100,
			"byteOffset":1019152,
			"target":34962
		},
		{
			"buffer":0,
			"byteLength":243400,
			"byteOffset":1384252,
			"target":34962
		},
		{
			"buffer":0,
			"byteLength":156426,
			"byteOffset":1627652,
			"target":34963
		},
		{
			"buffer":0,
			"byteLength":22440,
			"byteOffset":1784080,
			"target":34962
		},
		{
			"buffer":0,
			"byteLength":22440,
			"byteOffset":1806520,
			"target":34962
		},
		{
			"buffer":0,
			"byteLength":14960,
			"byteOffset":1828960,
			"target":34962
		},
		{
			"buffer":0,
			"byteLength":12636,
			"byteOffset":1843920,
			"target":34963
		}
	],
	"samplers":[
		{
			"magFilter":9729,
			"minFilter":9987
		}
	],
	"buffers":[
		{
			"byteLength":1856556,
			"uri":"awacse2k.bin"
		}
	]
}
