{
	"asset":{
		"generator":"Khronos glTF Blender I/O v4.4.56",
		"version":"2.0"
	},
	"extensionsUsed":[
		"KHR_materials_specular"
	],
	"scene":0,
	"scenes":[
		{
			"name":"Scene",
			"nodes":[
				0
			]
		}
	],
	"nodes":[
		{
			"mesh":0,
			"name":"WRJ_YL2_",
			"rotation":[
				0.7071068286895752,
				0,
				0,
				0.7071068286895752
			],
			"scale":[
				0.009999999776482582,
				0.009999999776482582,
				0.009999999776482582
			]
		}
	],
	"materials":[
		{
			"doubleSided":true,
			"extensions":{
				"KHR_materials_specular":{
					"specularColorFactor":[
						2.0,
						2.0,
						2.0
					]
				}
			},
			"name":"blinn1",
			"pbrMetallicRoughness":{
				"baseColorTexture":{
					"index":0
				},
				"metallicFactor":0.5,
				"roughnessFactor":0.7487671971321106
			}
		}
	],
	"meshes":[
		{
			"name":"\u7f51\u683c.001",
			"primitives":[
				{
					"attributes":{
						"POSITION":0,
						"NORMAL":1,
						"TEXCOORD_0":2
					},
					"indices":3,
					"material":0
				}
			]
		}
	],
	"textures":[
		{
			"sampler":0,
			"source":0
		}
	],
	"images":[
		{
			"mimeType":"image/jpeg",
			"name":"WRJ_YL2_02",
			"uri":"WRJ_YL2_02.jpg"
		}
	],
	"accessors":[
		{
			"bufferView":0,
			"componentType":5126,
			"count":19476,
			"max":[
				1412.886962890625,
				706.6146850585938,
				186.00949096679688
			],
			"min":[
				-1412.886962890625,
				-706.6146240234375,
				-186.0094757080078
			],
			"type":"VEC3"
		},
		{
			"bufferView":1,
			"componentType":5126,
			"count":19476,
			"type":"VEC3"
		},
		{
			"bufferView":2,
			"componentType":5126,
			"count":19476,
			"type":"VEC2"
		},
		{
			"bufferView":3,
			"componentType":5123,
			"count":99501,
			"type":"SCALAR"
		}
	],
	"bufferViews":[
		{
			"buffer":0,
			"byteLength":233712,
			"byteOffset":0,
			"target":34962
		},
		{
			"buffer":0,
			"byteLength":233712,
			"byteOffset":233712,
			"target":34962
		},
		{
			"buffer":0,
			"byteLength":155808,
			"byteOffset":467424,
			"target":34962
		},
		{
			"buffer":0,
			"byteLength":199002,
			"byteOffset":623232,
			"target":34963
		}
	],
	"samplers":[
		{
			"magFilter":9729,
			"minFilter":9987
		}
	],
	"buffers":[
		{
			"byteLength":822236,
			"uri":"yl2d.bin"
		}
	]
}
