{
	"asset":{
		"generator":"Khronos glTF Blender I/O v4.4.56",
		"version":"2.0"
	},
	"scene":0,
	"scenes":[
		{
			"name":"Scene",
			"nodes":[
				0
			]
		}
	],
	"nodes":[
		{
			"mesh":0,
			"name":"F16",
			"rotation":[
				0.7071068286895752,
				0,
				0,
				0.7071068286895752
			],
			"scale":[
				0.009999999776482582,
				0.009999999776482582,
				0.009999999776482582
			]
		}
	],
	"materials":[
		{
			"doubleSided":true,
			"name":"F16_01",
			"pbrMetallicRoughness":{
				"baseColorTexture":{
					"index":0
				},
				"metallicFactor":0,
				"roughnessFactor":0.5527864098548889
			}
		},
		{
			"doubleSided":true,
			"name":"F16_02",
			"pbrMetallicRoughness":{
				"baseColorTexture":{
					"index":1
				},
				"metallicFactor":0,
				"roughnessFactor":0.5527864098548889
			}
		},
		{
			"doubleSided":true,
			"name":"Mat3d66-7793923-2-62489",
			"pbrMetallicRoughness":{
				"baseColorFactor":[
					0.5,
					0.5,
					0.5,
					1
				],
				"metallicFactor":0,
				"roughnessFactor":0
			}
		},
		{
			"doubleSided":true,
			"name":"F16_03",
			"pbrMetallicRoughness":{
				"baseColorTexture":{
					"index":2
				},
				"metallicFactor":0,
				"roughnessFactor":0.5527864098548889
			}
		}
	],
	"meshes":[
		{
			"name":"\u7f51\u683c.001",
			"primitives":[
				{
					"attributes":{
						"POSITION":0,
						"NORMAL":1,
						"TEXCOORD_0":2
					},
					"indices":3,
					"material":0
				},
				{
					"attributes":{
						"POSITION":4,
						"NORMAL":5,
						"TEXCOORD_0":6
					},
					"indices":7,
					"material":1
				},
				{
					"attributes":{
						"POSITION":8,
						"NORMAL":9,
						"TEXCOORD_0":10
					},
					"indices":11,
					"material":2
				},
				{
					"attributes":{
						"POSITION":12,
						"NORMAL":13,
						"TEXCOORD_0":14
					},
					"indices":15,
					"material":3
				}
			]
		}
	],
	"textures":[
		{
			"sampler":0,
			"source":0
		},
		{
			"sampler":0,
			"source":1
		},
		{
			"sampler":0,
			"source":2
		}
	],
	"images":[
		{
			"mimeType":"image/jpeg",
			"name":"F16_01",
			"uri":"F16_01.jpg"
		},
		{
			"mimeType":"image/jpeg",
			"name":"F16_02",
			"uri":"F16_02.jpg"
		},
		{
			"mimeType":"image/jpeg",
			"name":"F16_03",
			"uri":"F16_03.jpg"
		}
	],
	"accessors":[
		{
			"bufferView":0,
			"componentType":5126,
			"count":2674,
			"max":[
				157.55142211914062,
				837.2973022460938,
				241.053466796875
			],
			"min":[
				-157.64727783203125,
				-780.7747192382812,
				-17.879051208496094
			],
			"type":"VEC3"
		},
		{
			"bufferView":1,
			"componentType":5126,
			"count":2674,
			"type":"VEC3"
		},
		{
			"bufferView":2,
			"componentType":5126,
			"count":2674,
			"type":"VEC2"
		},
		{
			"bufferView":3,
			"componentType":5123,
			"count":8406,
			"type":"SCALAR"
		},
		{
			"bufferView":4,
			"componentType":5126,
			"count":2298,
			"max":[
				576.9627075195312,
				47.69076156616211,
				168.518798828125
			],
			"min":[
				-576.9627075195312,
				-432.83245849609375,
				102.73420715332031
			],
			"type":"VEC3"
		},
		{
			"bufferView":5,
			"componentType":5126,
			"count":2298,
			"type":"VEC3"
		},
		{
			"bufferView":6,
			"componentType":5126,
			"count":2298,
			"type":"VEC2"
		},
		{
			"bufferView":7,
			"componentType":5123,
			"count":5484,
			"type":"SCALAR"
		},
		{
			"bufferView":8,
			"componentType":5126,
			"count":113,
			"max":[
				55.67229461669922,
				551.7317504882812,
				61.450748443603516
			],
			"min":[
				-56.637332916259766,
				166.32601928710938,
				-20.311485290527344
			],
			"type":"VEC3"
		},
		{
			"bufferView":9,
			"componentType":5126,
			"count":113,
			"type":"VEC3"
		},
		{
			"bufferView":10,
			"componentType":5126,
			"count":113,
			"type":"VEC2"
		},
		{
			"bufferView":11,
			"componentType":5123,
			"count":510,
			"type":"SCALAR"
		},
		{
			"bufferView":12,
			"componentType":5126,
			"count":2540,
			"max":[
				332.8828430175781,
				892.1140747070312,
				282.17523193359375
			],
			"min":[
				-332.8827209472656,
				-892.1140747070312,
				-282.1752624511719
			],
			"type":"VEC3"
		},
		{
			"bufferView":13,
			"componentType":5126,
			"count":2540,
			"type":"VEC3"
		},
		{
			"bufferView":14,
			"componentType":5126,
			"count":2540,
			"type":"VEC2"
		},
		{
			"bufferView":15,
			"componentType":5123,
			"count":6324,
			"type":"SCALAR"
		}
	],
	"bufferViews":[
		{
			"buffer":0,
			"byteLength":32088,
			"byteOffset":0,
			"target":34962
		},
		{
			"buffer":0,
			"byteLength":32088,
			"byteOffset":32088,
			"target":34962
		},
		{
			"buffer":0,
			"byteLength":21392,
			"byteOffset":64176,
			"target":34962
		},
		{
			"buffer":0,
			"byteLength":16812,
			"byteOffset":85568,
			"target":34963
		},
		{
			"buffer":0,
			"byteLength":27576,
			"byteOffset":102380,
			"target":34962
		},
		{
			"buffer":0,
			"byteLength":27576,
			"byteOffset":129956,
			"target":34962
		},
		{
			"buffer":0,
			"byteLength":18384,
			"byteOffset":157532,
			"target":34962
		},
		{
			"buffer":0,
			"byteLength":10968,
			"byteOffset":175916,
			"target":34963
		},
		{
			"buffer":0,
			"byteLength":1356,
			"byteOffset":186884,
			"target":34962
		},
		{
			"buffer":0,
			"byteLength":1356,
			"byteOffset":188240,
			"target":34962
		},
		{
			"buffer":0,
			"byteLength":904,
			"byteOffset":189596,
			"target":34962
		},
		{
			"buffer":0,
			"byteLength":1020,
			"byteOffset":190500,
			"target":34963
		},
		{
			"buffer":0,
			"byteLength":30480,
			"byteOffset":191520,
			"target":34962
		},
		{
			"buffer":0,
			"byteLength":30480,
			"byteOffset":222000,
			"target":34962
		},
		{
			"buffer":0,
			"byteLength":20320,
			"byteOffset":252480,
			"target":34962
		},
		{
			"buffer":0,
			"byteLength":12648,
			"byteOffset":272800,
			"target":34963
		}
	],
	"samplers":[
		{
			"magFilter":9729,
			"minFilter":9987
		}
	],
	"buffers":[
		{
			"byteLength":285448,
			"uri":"f16.bin"
		}
	]
}
