{
	"asset":{
		"generator":"Khronos glTF Blender I/O v4.4.56",
		"version":"2.0"
	},
	"extensionsUsed":[
		"KHR_materials_specular"
	],
	"scene":0,
	"scenes":[
		{
			"name":"Scene",
			"nodes":[
				0
			]
		}
	],
	"nodes":[
		{
			"mesh":0,
			"name":"F5E",
			"rotation":[
				0.7071068286895752,
				0,
				0,
				0.7071068286895752
			],
			"scale":[
				0.009999999776482582,
				0.009999999776482582,
				0.009999999776482582
			]
		}
	],
	"materials":[
		{
			"doubleSided":true,
			"extensions":{
				"KHR_materials_specular":{
					"specularColorFactor":[
						2.0,
						2.0,
						2.0
					]
				}
			},
			"name":"blinn1",
			"pbrMetallicRoughness":{
				"baseColorTexture":{
					"index":0
				},
				"metallicFactor":0.5,
				"roughnessFactor":0.7487671971321106
			}
		},
		{
			"doubleSided":true,
			"extensions":{
				"KHR_materials_specular":{
					"specularColorFactor":[
						2.0,
						2.0,
						2.0
					]
				}
			},
			"name":"blinn3",
			"pbrMetallicRoughness":{
				"baseColorFactor":[
					0.08209999650716782,
					0.08879999816417694,
					0.2709999978542328,
					1
				],
				"metallicFactor":0.5,
				"roughnessFactor":0.7487671971321106
			}
		},
		{
			"doubleSided":true,
			"extensions":{
				"KHR_materials_specular":{
					"specularColorFactor":[
						2.0,
						2.0,
						2.0
					]
				}
			},
			"name":"blinn2",
			"pbrMetallicRoughness":{
				"baseColorFactor":[
					0.8193548321723938,
					0.8193548321723938,
					0.8193548321723938,
					1
				],
				"metallicFactor":0.5,
				"roughnessFactor":0.7487671971321106
			}
		},
		{
			"alphaMode":"MASK",
			"doubleSided":true,
			"extensions":{
				"KHR_materials_specular":{
					"specularColorFactor":[
						2.0,
						2.0,
						2.0
					]
				}
			},
			"name":"vray_3d66-PhysicalMaterial-16694646-052",
			"pbrMetallicRoughness":{
				"baseColorFactor":[
					0,
					0,
					0,
					0
				],
				"metallicFactor":0,
				"roughnessFactor":0.858578622341156
			}
		}
	],
	"meshes":[
		{
			"name":"\u7f51\u683c.003",
			"primitives":[
				{
					"attributes":{
						"POSITION":0,
						"NORMAL":1,
						"TEXCOORD_0":2,
						"TEXCOORD_1":3,
						"TEXCOORD_2":4,
						"COLOR_0":5,
						"COLOR_1":6
					},
					"indices":7,
					"material":0
				},
				{
					"attributes":{
						"POSITION":8,
						"NORMAL":9,
						"TEXCOORD_0":10,
						"TEXCOORD_1":11,
						"TEXCOORD_2":12,
						"COLOR_0":13,
						"COLOR_1":14
					},
					"indices":15,
					"material":1
				},
				{
					"attributes":{
						"POSITION":16,
						"NORMAL":17,
						"TEXCOORD_0":18,
						"TEXCOORD_1":19,
						"TEXCOORD_2":20,
						"COLOR_0":21,
						"COLOR_1":22
					},
					"indices":23,
					"material":2
				},
				{
					"attributes":{
						"POSITION":24,
						"NORMAL":25,
						"TEXCOORD_0":26,
						"TEXCOORD_1":27,
						"TEXCOORD_2":28,
						"COLOR_0":29,
						"COLOR_1":30
					},
					"indices":31,
					"material":3
				}
			]
		}
	],
	"textures":[
		{
			"sampler":0,
			"source":0
		}
	],
	"images":[
		{
			"mimeType":"image/jpeg",
			"name":"F5E_01",
			"uri":"F5E_01.jpg"
		}
	],
	"accessors":[
		{
			"bufferView":0,
			"componentType":5126,
			"count":10659,
			"max":[
				439.8758850097656,
				812.4317626953125,
				145.69873046875
			],
			"min":[
				-426.55487060546875,
				-771.1959838867188,
				-200.96945190429688
			],
			"type":"VEC3"
		},
		{
			"bufferView":1,
			"componentType":5126,
			"count":10659,
			"type":"VEC3"
		},
		{
			"bufferView":2,
			"componentType":5126,
			"count":10659,
			"type":"VEC2"
		},
		{
			"bufferView":3,
			"componentType":5126,
			"count":10659,
			"type":"VEC2"
		},
		{
			"bufferView":4,
			"componentType":5126,
			"count":10659,
			"type":"VEC2"
		},
		{
			"bufferView":5,
			"componentType":5121,
			"count":10659,
			"normalized":true,
			"type":"VEC4"
		},
		{
			"bufferView":6,
			"componentType":5123,
			"count":10659,
			"normalized":true,
			"type":"VEC4"
		},
		{
			"bufferView":7,
			"componentType":5123,
			"count":36831,
			"type":"SCALAR"
		},
		{
			"bufferView":8,
			"componentType":5126,
			"count":2910,
			"max":[
				116.99715423583984,
				579.5458374023438,
				200.96945190429688
			],
			"min":[
				-455.94921875,
				-812.4317626953125,
				-51.381263732910156
			],
			"type":"VEC3"
		},
		{
			"bufferView":9,
			"componentType":5126,
			"count":2910,
			"type":"VEC3"
		},
		{
			"bufferView":10,
			"componentType":5126,
			"count":2910,
			"type":"VEC2"
		},
		{
			"bufferView":11,
			"componentType":5126,
			"count":2910,
			"type":"VEC2"
		},
		{
			"bufferView":12,
			"componentType":5126,
			"count":2910,
			"type":"VEC2"
		},
		{
			"bufferView":13,
			"componentType":5121,
			"count":2910,
			"normalized":true,
			"type":"VEC4"
		},
		{
			"bufferView":14,
			"componentType":5123,
			"count":2910,
			"normalized":true,
			"type":"VEC4"
		},
		{
			"bufferView":15,
			"componentType":5123,
			"count":9441,
			"type":"SCALAR"
		},
		{
			"bufferView":16,
			"componentType":5126,
			"count":1787,
			"max":[
				456.2877502441406,
				217.8054656982422,
				124.4223861694336
			],
			"min":[
				-456.2877502441406,
				-407.540283203125,
				-54.113731384277344
			],
			"type":"VEC3"
		},
		{
			"bufferView":17,
			"componentType":5126,
			"count":1787,
			"type":"VEC3"
		},
		{
			"bufferView":18,
			"componentType":5126,
			"count":1787,
			"type":"VEC2"
		},
		{
			"bufferView":19,
			"componentType":5126,
			"count":1787,
			"type":"VEC2"
		},
		{
			"bufferView":20,
			"componentType":5126,
			"count":1787,
			"type":"VEC2"
		},
		{
			"bufferView":21,
			"componentType":5121,
			"count":1787,
			"normalized":true,
			"type":"VEC4"
		},
		{
			"bufferView":22,
			"componentType":5123,
			"count":1787,
			"normalized":true,
			"type":"VEC4"
		},
		{
			"bufferView":23,
			"componentType":5123,
			"count":3669,
			"type":"SCALAR"
		},
		{
			"bufferView":24,
			"componentType":5126,
			"count":606,
			"max":[
				56.315460205078125,
				312.0040283203125,
				-3.5748329162597656
			],
			"min":[
				-43.07273483276367,
				101.95848083496094,
				-54.113731384277344
			],
			"type":"VEC3"
		},
		{
			"bufferView":25,
			"componentType":5126,
			"count":606,
			"type":"VEC3"
		},
		{
			"bufferView":26,
			"componentType":5126,
			"count":606,
			"type":"VEC2"
		},
		{
			"bufferView":27,
			"componentType":5126,
			"count":606,
			"type":"VEC2"
		},
		{
			"bufferView":28,
			"componentType":5126,
			"count":606,
			"type":"VEC2"
		},
		{
			"bufferView":29,
			"componentType":5121,
			"count":606,
			"normalized":true,
			"type":"VEC4"
		},
		{
			"bufferView":30,
			"componentType":5123,
			"count":606,
			"normalized":true,
			"type":"VEC4"
		},
		{
			"bufferView":31,
			"componentType":5123,
			"count":2610,
			"type":"SCALAR"
		}
	],
	"bufferViews":[
		{
			"buffer":0,
			"byteLength":127908,
			"byteOffset":0,
			"target":34962
		},
		{
			"buffer":0,
			"byteLength":127908,
			"byteOffset":127908,
			"target":34962
		},
		{
			"buffer":0,
			"byteLength":85272,
			"byteOffset":255816,
			"target":34962
		},
		{
			"buffer":0,
			"byteLength":85272,
			"byteOffset":341088,
			"target":34962
		},
		{
			"buffer":0,
			"byteLength":85272,
			"byteOffset":426360,
			"target":34962
		},
		{
			"buffer":0,
			"byteLength":42636,
			"byteOffset":511632,
			"target":34962
		},
		{
			"buffer":0,
			"byteLength":85272,
			"byteOffset":554268,
			"target":34962
		},
		{
			"buffer":0,
			"byteLength":73662,
			"byteOffset":639540,
			"target":34963
		},
		{
			"buffer":0,
			"byteLength":34920,
			"byteOffset":713204,
			"target":34962
		},
		{
			"buffer":0,
			"byteLength":34920,
			"byteOffset":748124,
			"target":34962
		},
		{
			"buffer":0,
			"byteLength":23280,
			"byteOffset":783044,
			"target":34962
		},
		{
			"buffer":0,
			"byteLength":23280,
			"byteOffset":806324,
			"target":34962
		},
		{
			"buffer":0,
			"byteLength":23280,
			"byteOffset":829604,
			"target":34962
		},
		{
			"buffer":0,
			"byteLength":11640,
			"byteOffset":852884,
			"target":34962
		},
		{
			"buffer":0,
			"byteLength":23280,
			"byteOffset":864524,
			"target":34962
		},
		{
			"buffer":0,
			"byteLength":18882,
			"byteOffset":887804,
			"target":34963
		},
		{
			"buffer":0,
			"byteLength":21444,
			"byteOffset":906688,
			"target":34962
		},
		{
			"buffer":0,
			"byteLength":21444,
			"byteOffset":928132,
			"target":34962
		},
		{
			"buffer":0,
			"byteLength":14296,
			"byteOffset":949576,
			"target":34962
		},
		{
			"buffer":0,
			"byteLength":14296,
			"byteOffset":963872,
			"target":34962
		},
		{
			"buffer":0,
			"byteLength":14296,
			"byteOffset":978168,
			"target":34962
		},
		{
			"buffer":0,
			"byteLength":7148,
			"byteOffset":992464,
			"target":34962
		},
		{
			"buffer":0,
			"byteLength":14296,
			"byteOffset":999612,
			"target":34962
		},
		{
			"buffer":0,
			"byteLength":7338,
			"byteOffset":1013908,
			"target":34963
		},
		{
			"buffer":0,
			"byteLength":7272,
			"byteOffset":1021248,
			"target":34962
		},
		{
			"buffer":0,
			"byteLength":7272,
			"byteOffset":1028520,
			"target":34962
		},
		{
			"buffer":0,
			"byteLength":4848,
			"byteOffset":1035792,
			"target":34962
		},
		{
			"buffer":0,
			"byteLength":4848,
			"byteOffset":1040640,
			"target":34962
		},
		{
			"buffer":0,
			"byteLength":4848,
			"byteOffset":1045488,
			"target":34962
		},
		{
			"buffer":0,
			"byteLength":2424,
			"byteOffset":1050336,
			"target":34962
		},
		{
			"buffer":0,
			"byteLength":4848,
			"byteOffset":1052760,
			"target":34962
		},
		{
			"buffer":0,
			"byteLength":5220,
			"byteOffset":1057608,
			"target":34963
		}
	],
	"samplers":[
		{
			"magFilter":9729,
			"minFilter":9987
		}
	],
	"buffers":[
		{
			"byteLength":1062828,
			"uri":"f5e.bin"
		}
	]
}
