{
	"asset":{
		"generator":"Khronos glTF Blender I/O v4.4.56",
		"version":"2.0"
	},
	"extensionsUsed":[
		"KHR_materials_specular"
	],
	"scene":0,
	"scenes":[
		{
			"name":"Scene",
			"nodes":[
				0
			]
		}
	],
	"nodes":[
		{
			"mesh":0,
			"name":"IDF_ZDJ",
			"rotation":[
				0.7071068286895752,
				0,
				0,
				0.7071068286895752
			],
			"scale":[
				0.009999999776482582,
				0.009999999776482582,
				0.009999999776482582
			]
		}
	],
	"materials":[
		{
			"doubleSided":true,
			"extensions":{
				"KHR_materials_specular":{
					"specularColorFactor":[
						2.0,
						2.0,
						2.0
					]
				}
			},
			"name":"blinn1",
			"pbrMetallicRoughness":{
				"baseColorTexture":{
					"index":0
				},
				"metallicFactor":0.5,
				"roughnessFactor":0.7487671971321106
			}
		}
	],
	"meshes":[
		{
			"name":"\u7f51\u683c",
			"primitives":[
				{
					"attributes":{
						"POSITION":0,
						"NORMAL":1,
						"TEXCOORD_0":2
					},
					"indices":3,
					"material":0
				}
			]
		}
	],
	"textures":[
		{
			"sampler":0,
			"source":0
		}
	],
	"images":[
		{
			"mimeType":"image/jpeg",
			"name":"IDF_01",
			"uri":"IDF_01.jpg"
		}
	],
	"accessors":[
		{
			"bufferView":0,
			"componentType":5126,
			"count":14899,
			"max":[
				508.7388916015625,
				757.5596923828125,
				206.72824096679688
			],
			"min":[
				-508.7388916015625,
				-757.5596923828125,
				-206.72824096679688
			],
			"type":"VEC3"
		},
		{
			"bufferView":1,
			"componentType":5126,
			"count":14899,
			"type":"VEC3"
		},
		{
			"bufferView":2,
			"componentType":5126,
			"count":14899,
			"type":"VEC2"
		},
		{
			"bufferView":3,
			"componentType":5123,
			"count":50925,
			"type":"SCALAR"
		}
	],
	"bufferViews":[
		{
			"buffer":0,
			"byteLength":178788,
			"byteOffset":0,
			"target":34962
		},
		{
			"buffer":0,
			"byteLength":178788,
			"byteOffset":178788,
			"target":34962
		},
		{
			"buffer":0,
			"byteLength":119192,
			"byteOffset":357576,
			"target":34962
		},
		{
			"buffer":0,
			"byteLength":101850,
			"byteOffset":476768,
			"target":34963
		}
	],
	"samplers":[
		{
			"magFilter":9729,
			"minFilter":9987
		}
	],
	"buffers":[
		{
			"byteLength":578620,
			"uri":"idf.bin"
		}
	]
}
