{
	"asset":{
		"generator":"Khronos glTF Blender I/O v4.4.56",
		"version":"2.0"
	},
	"extensionsUsed":[
		"KHR_materials_specular"
	],
	"scene":0,
	"scenes":[
		{
			"name":"Scene",
			"nodes":[
				0
			]
		}
	],
	"nodes":[
		{
			"mesh":0,
			"name":"J_20_",
			"rotation":[
				0.7071068286895752,
				0,
				0,
				0.7071068286895752
			],
			"scale":[
				0.009999999776482582,
				0.009999999776482582,
				0.009999999776482582
			]
		}
	],
	"materials":[
		{
			"doubleSided":true,
			"extensions":{
				"KHR_materials_specular":{
					"specularColorFactor":[
						2.0,
						2.0,
						2.0
					]
				}
			},
			"name":"blinn1.001",
			"pbrMetallicRoughness":{
				"baseColorTexture":{
					"index":0
				},
				"metallicFactor":0.5,
				"roughnessFactor":0.7487671971321106
			}
		}
	],
	"meshes":[
		{
			"name":"\u7f51\u683c.004",
			"primitives":[
				{
					"attributes":{
						"POSITION":0,
						"NORMAL":1,
						"TEXCOORD_0":2
					},
					"indices":3,
					"material":0
				}
			]
		}
	],
	"textures":[
		{
			"sampler":0,
			"source":0
		}
	],
	"images":[
		{
			"mimeType":"image/jpeg",
			"name":"j20",
			"uri":"j20.jpg"
		}
	],
	"accessors":[
		{
			"bufferView":0,
			"componentType":5126,
			"count":4690,
			"max":[
				644.3916625976562,
				1105.352294921875,
				179.09051513671875
			],
			"min":[
				-644.3916625976562,
				-1105.352294921875,
				-179.09051513671875
			],
			"type":"VEC3"
		},
		{
			"bufferView":1,
			"componentType":5126,
			"count":4690,
			"type":"VEC3"
		},
		{
			"bufferView":2,
			"componentType":5126,
			"count":4690,
			"type":"VEC2"
		},
		{
			"bufferView":3,
			"componentType":5123,
			"count":11643,
			"type":"SCALAR"
		}
	],
	"bufferViews":[
		{
			"buffer":0,
			"byteLength":56280,
			"byteOffset":0,
			"target":34962
		},
		{
			"buffer":0,
			"byteLength":56280,
			"byteOffset":56280,
			"target":34962
		},
		{
			"buffer":0,
			"byteLength":37520,
			"byteOffset":112560,
			"target":34962
		},
		{
			"buffer":0,
			"byteLength":23286,
			"byteOffset":150080,
			"target":34963
		}
	],
	"samplers":[
		{
			"magFilter":9729,
			"minFilter":9987
		}
	],
	"buffers":[
		{
			"byteLength":173368,
			"uri":"j20.bin"
		}
	]
}
