{
	"asset":{
		"generator":"Khronos glTF Blender I/O v4.4.56",
		"version":"2.0"
	},
	"extensionsUsed":[
		"KHR_materials_specular"
	],
	"scene":0,
	"scenes":[
		{
			"name":"Scene",
			"nodes":[
				0
			]
		}
	],
	"nodes":[
		{
			"mesh":0,
			"name":"JYJ_HWJ",
			"rotation":[
				0.7071068286895752,
				0,
				0,
				0.7071068286895752
			],
			"scale":[
				0.009999999776482582,
				0.009999999776482582,
				0.009999999776482582
			]
		}
	],
	"materials":[
		{
			"doubleSided":true,
			"extensions":{
				"KHR_materials_specular":{
					"specularColorFactor":[
						2.0,
						2.0,
						2.0
					]
				}
			},
			"name":"blinn1.005",
			"pbrMetallicRoughness":{
				"baseColorTexture":{
					"index":0
				},
				"metallicFactor":0.5,
				"roughnessFactor":0.7487671971321106
			}
		}
	],
	"meshes":[
		{
			"name":"\u7f51\u683c.005",
			"primitives":[
				{
					"attributes":{
						"POSITION":0,
						"NORMAL":1,
						"TEXCOORD_0":2
					},
					"indices":3,
					"material":0
				}
			]
		}
	],
	"textures":[
		{
			"sampler":0,
			"source":0
		}
	],
	"images":[
		{
			"mimeType":"image/jpeg",
			"name":"JYJ_HWJ_01",
			"uri":"JYJ_HWJ_01.jpg"
		}
	],
	"accessors":[
		{
			"bufferView":0,
			"componentType":5126,
			"count":13779,
			"max":[
				112.09251403808594,
				991.3404541015625,
				343.2189025878906
			],
			"min":[
				-112.09251403808594,
				-991.3404541015625,
				-343.21893310546875
			],
			"type":"VEC3"
		},
		{
			"bufferView":1,
			"componentType":5126,
			"count":13779,
			"type":"VEC3"
		},
		{
			"bufferView":2,
			"componentType":5126,
			"count":13779,
			"type":"VEC2"
		},
		{
			"bufferView":3,
			"componentType":5123,
			"count":22146,
			"type":"SCALAR"
		}
	],
	"bufferViews":[
		{
			"buffer":0,
			"byteLength":165348,
			"byteOffset":0,
			"target":34962
		},
		{
			"buffer":0,
			"byteLength":165348,
			"byteOffset":165348,
			"target":34962
		},
		{
			"buffer":0,
			"byteLength":110232,
			"byteOffset":330696,
			"target":34962
		},
		{
			"buffer":0,
			"byteLength":44292,
			"byteOffset":440928,
			"target":34963
		}
	],
	"samplers":[
		{
			"magFilter":9729,
			"minFilter":9987
		}
	],
	"buffers":[
		{
			"byteLength":485220,
			"uri":"jyjhwj.bin"
		}
	]
}
