{
	"asset":{
		"generator":"Khronos glTF Blender I/O v4.4.56",
		"version":"2.0"
	},
	"extensionsUsed":[
		"KHR_materials_specular"
	],
	"scene":0,
	"scenes":[
		{
			"name":"Scene",
			"nodes":[
				0
			]
		}
	],
	"nodes":[
		{
			"mesh":0,
			"name":"GYJ_BJJ",
			"rotation":[
				0.7071068286895752,
				0,
				0,
				0.7071068286895752
			],
			"scale":[
				0.009999999776482582,
				0.009999999776482582,
				0.009999999776482582
			]
		}
	],
	"materials":[
		{
			"doubleSided":true,
			"extensions":{
				"KHR_materials_specular":{
					"specularColorFactor":[
						2.0,
						2.0,
						2.0
					]
				}
			},
			"name":"blinn2.002",
			"pbrMetallicRoughness":{
				"baseColorTexture":{
					"index":0
				},
				"metallicFactor":0.5,
				"roughnessFactor":0.7487671971321106
			}
		},
		{
			"doubleSided":true,
			"extensions":{
				"KHR_materials_specular":{
					"specularColorFactor":[
						2.0,
						2.0,
						2.0
					]
				}
			},
			"name":"blinn4",
			"pbrMetallicRoughness":{
				"baseColorTexture":{
					"index":1
				},
				"metallicFactor":0.5,
				"roughnessFactor":0.7487671971321106
			}
		},
		{
			"doubleSided":true,
			"extensions":{
				"KHR_materials_specular":{
					"specularColorFactor":[
						2.0,
						2.0,
						2.0
					]
				}
			},
			"name":"blinn1.003",
			"pbrMetallicRoughness":{
				"baseColorTexture":{
					"index":2
				},
				"metallicFactor":0.5,
				"roughnessFactor":0.7487671971321106
			}
		},
		{
			"doubleSided":true,
			"extensions":{
				"KHR_materials_specular":{
					"specularColorFactor":[
						2.0,
						2.0,
						2.0
					]
				}
			},
			"name":"blinn3.001",
			"pbrMetallicRoughness":{
				"baseColorTexture":{
					"index":3
				},
				"metallicFactor":0.5,
				"roughnessFactor":0.7487671971321106
			}
		}
	],
	"meshes":[
		{
			"name":"\u7f51\u683c.003",
			"primitives":[
				{
					"attributes":{
						"POSITION":0,
						"NORMAL":1,
						"TEXCOORD_0":2
					},
					"indices":3,
					"material":0
				},
				{
					"attributes":{
						"POSITION":4,
						"NORMAL":5,
						"TEXCOORD_0":6
					},
					"indices":7,
					"material":1
				},
				{
					"attributes":{
						"POSITION":8,
						"NORMAL":9,
						"TEXCOORD_0":10
					},
					"indices":11,
					"material":2
				},
				{
					"attributes":{
						"POSITION":12,
						"NORMAL":13,
						"TEXCOORD_0":14
					},
					"indices":15,
					"material":3
				}
			]
		}
	],
	"textures":[
		{
			"sampler":0,
			"source":0
		},
		{
			"sampler":0,
			"source":1
		},
		{
			"sampler":0,
			"source":2
		},
		{
			"sampler":0,
			"source":3
		}
	],
	"images":[
		{
			"mimeType":"image/jpeg",
			"name":"GYJ_BJJ_03",
			"uri":"GYJ_BJJ_03.jpg"
		},
		{
			"mimeType":"image/jpeg",
			"name":"GYJ_BJJ_05",
			"uri":"GYJ_BJJ_05.jpg"
		},
		{
			"mimeType":"image/jpeg",
			"name":"GYJ_BJJ_01",
			"uri":"GYJ_BJJ_01.jpg"
		},
		{
			"mimeType":"image/jpeg",
			"name":"GYJ_BJJ_04",
			"uri":"GYJ_BJJ_04.jpg"
		}
	],
	"accessors":[
		{
			"bufferView":0,
			"componentType":5126,
			"count":13877,
			"max":[
				190.49447631835938,
				1191.2017822265625,
				146.09893798828125
			],
			"min":[
				-190.49429321289062,
				-914.4683837890625,
				-376.96990966796875
			],
			"type":"VEC3"
		},
		{
			"bufferView":1,
			"componentType":5126,
			"count":13877,
			"type":"VEC3"
		},
		{
			"bufferView":2,
			"componentType":5126,
			"count":13877,
			"type":"VEC2"
		},
		{
			"bufferView":3,
			"componentType":5123,
			"count":57063,
			"type":"SCALAR"
		},
		{
			"bufferView":4,
			"componentType":5126,
			"count":1955,
			"max":[
				177.65451049804688,
				1199.4586181640625,
				314.89532470703125
			],
			"min":[
				-177.65432739257812,
				-1161.1444091796875,
				-35.12239456176758
			],
			"type":"VEC3"
		},
		{
			"bufferView":5,
			"componentType":5126,
			"count":1955,
			"type":"VEC3"
		},
		{
			"bufferView":6,
			"componentType":5126,
			"count":1955,
			"type":"VEC2"
		},
		{
			"bufferView":7,
			"componentType":5123,
			"count":10488,
			"type":"SCALAR"
		},
		{
			"bufferView":8,
			"componentType":5126,
			"count":338,
			"max":[
				143.25830078125,
				717.0330810546875,
				53.3428955078125
			],
			"min":[
				-143.25674438476562,
				-855.0421142578125,
				-86.29875183105469
			],
			"type":"VEC3"
		},
		{
			"bufferView":9,
			"componentType":5126,
			"count":338,
			"type":"VEC3"
		},
		{
			"bufferView":10,
			"componentType":5126,
			"count":338,
			"type":"VEC2"
		},
		{
			"bufferView":11,
			"componentType":5123,
			"count":1338,
			"type":"SCALAR"
		},
		{
			"bufferView":12,
			"componentType":5126,
			"count":7606,
			"max":[
				148.91229248046875,
				722.9974365234375,
				128.22616577148438
			],
			"min":[
				-148.40673828125,
				-858.5247802734375,
				-86.2982177734375
			],
			"type":"VEC3"
		},
		{
			"bufferView":13,
			"componentType":5126,
			"count":7606,
			"type":"VEC3"
		},
		{
			"bufferView":14,
			"componentType":5126,
			"count":7606,
			"type":"VEC2"
		},
		{
			"bufferView":15,
			"componentType":5123,
			"count":17907,
			"type":"SCALAR"
		}
	],
	"bufferViews":[
		{
			"buffer":0,
			"byteLength":166524,
			"byteOffset":0,
			"target":34962
		},
		{
			"buffer":0,
			"byteLength":166524,
			"byteOffset":166524,
			"target":34962
		},
		{
			"buffer":0,
			"byteLength":111016,
			"byteOffset":333048,
			"target":34962
		},
		{
			"buffer":0,
			"byteLength":114126,
			"byteOffset":444064,
			"target":34963
		},
		{
			"buffer":0,
			"byteLength":23460,
			"byteOffset":558192,
			"target":34962
		},
		{
			"buffer":0,
			"byteLength":23460,
			"byteOffset":581652,
			"target":34962
		},
		{
			"buffer":0,
			"byteLength":15640,
			"byteOffset":605112,
			"target":34962
		},
		{
			"buffer":0,
			"byteLength":20976,
			"byteOffset":620752,
			"target":34963
		},
		{
			"buffer":0,
			"byteLength":4056,
			"byteOffset":641728,
			"target":34962
		},
		{
			"buffer":0,
			"byteLength":4056,
			"byteOffset":645784,
			"target":34962
		},
		{
			"buffer":0,
			"byteLength":2704,
			"byteOffset":649840,
			"target":34962
		},
		{
			"buffer":0,
			"byteLength":2676,
			"byteOffset":652544,
			"target":34963
		},
		{
			"buffer":0,
			"byteLength":91272,
			"byteOffset":655220,
			"target":34962
		},
		{
			"buffer":0,
			"byteLength":91272,
			"byteOffset":746492,
			"target":34962
		},
		{
			"buffer":0,
			"byteLength":60848,
			"byteOffset":837764,
			"target":34962
		},
		{
			"buffer":0,
			"byteLength":35814,
			"byteOffset":898612,
			"target":34963
		}
	],
	"samplers":[
		{
			"magFilter":9729,
			"minFilter":9987
		}
	],
	"buffers":[
		{
			"byteLength":934428,
			"uri":"gyjbjj.bin"
		}
	]
}
