{
	"asset":{
		"generator":"Khronos glTF Blender I/O v4.4.56",
		"version":"2.0"
	},
	"extensionsUsed":[
		"KHR_materials_specular"
	],
	"scene":0,
	"scenes":[
		{
			"name":"Scene",
			"nodes":[
				0
			]
		}
	],
	"nodes":[
		{
			"mesh":0,
			"name":"WRJ_WZ7A",
			"rotation":[
				0.7071068286895752,
				0,
				0,
				0.7071068286895752
			],
			"scale":[
				0.009999999776482582,
				0.009999999776482582,
				0.009999999776482582
			],
			"translation":[
				0,
				-0.38357001543045044,
				0
			]
		}
	],
	"materials":[
		{
			"doubleSided":true,
			"extensions":{
				"KHR_materials_specular":{
					"specularColorFactor":[
						2.0,
						2.0,
						2.0
					]
				}
			},
			"name":"blinn1.001",
			"pbrMetallicRoughness":{
				"baseColorTexture":{
					"index":0
				},
				"metallicFactor":0.5,
				"roughnessFactor":0.7487671971321106
			}
		},
		{
			"doubleSided":true,
			"extensions":{
				"KHR_materials_specular":{
					"specularColorFactor":[
						2.0,
						2.0,
						2.0
					]
				}
			},
			"name":"blinn3",
			"pbrMetallicRoughness":{
				"baseColorTexture":{
					"index":1
				},
				"metallicFactor":0.5,
				"roughnessFactor":0.7487671971321106
			}
		},
		{
			"doubleSided":true,
			"extensions":{
				"KHR_materials_specular":{
					"specularColorFactor":[
						2.0,
						2.0,
						2.0
					]
				}
			},
			"name":"blinn2",
			"pbrMetallicRoughness":{
				"baseColorTexture":{
					"index":2
				},
				"metallicFactor":0.5,
				"roughnessFactor":0.7487671971321106
			}
		}
	],
	"meshes":[
		{
			"name":"\u7f51\u683c.003",
			"primitives":[
				{
					"attributes":{
						"POSITION":0,
						"NORMAL":1,
						"TEXCOORD_0":2,
						"COLOR_0":3,
						"COLOR_1":4
					},
					"indices":5,
					"material":0
				},
				{
					"attributes":{
						"POSITION":6,
						"NORMAL":7,
						"TEXCOORD_0":8,
						"COLOR_0":9,
						"COLOR_1":10
					},
					"indices":11,
					"material":1
				},
				{
					"attributes":{
						"POSITION":12,
						"NORMAL":13,
						"TEXCOORD_0":14,
						"COLOR_0":15,
						"COLOR_1":16
					},
					"indices":17,
					"material":2
				}
			]
		}
	],
	"textures":[
		{
			"sampler":0,
			"source":0
		},
		{
			"sampler":0,
			"source":1
		},
		{
			"sampler":0,
			"source":2
		}
	],
	"images":[
		{
			"mimeType":"image/jpeg",
			"name":"WRJ_WZ7A_03",
			"uri":"WRJ_WZ7A_03.jpg"
		},
		{
			"mimeType":"image/jpeg",
			"name":"WRJ_WZ7A_05",
			"uri":"WRJ_WZ7A_05.jpg"
		},
		{
			"mimeType":"image/jpeg",
			"name":"WRJ_WZ7A_04",
			"uri":"WRJ_WZ7A_04.jpg"
		}
	],
	"accessors":[
		{
			"bufferView":0,
			"componentType":5126,
			"count":42682,
			"max":[
				1160.682373046875,
				710.9100341796875,
				130.8575897216797
			],
			"min":[
				-1160.682373046875,
				-710.9100341796875,
				-207.57159423828125
			],
			"type":"VEC3"
		},
		{
			"bufferView":1,
			"componentType":5126,
			"count":42682,
			"type":"VEC3"
		},
		{
			"bufferView":2,
			"componentType":5126,
			"count":42682,
			"type":"VEC2"
		},
		{
			"bufferView":3,
			"componentType":5121,
			"count":42682,
			"normalized":true,
			"type":"VEC4"
		},
		{
			"bufferView":4,
			"componentType":5123,
			"count":42682,
			"normalized":true,
			"type":"VEC4"
		},
		{
			"bufferView":5,
			"componentType":5123,
			"count":223170,
			"type":"SCALAR"
		},
		{
			"bufferView":6,
			"componentType":5126,
			"count":4030,
			"max":[
				47.447166442871094,
				-30.305213928222656,
				25.30279541015625
			],
			"min":[
				-47.447242736816406,
				-591.619873046875,
				-77.41426086425781
			],
			"type":"VEC3"
		},
		{
			"bufferView":7,
			"componentType":5126,
			"count":4030,
			"type":"VEC3"
		},
		{
			"bufferView":8,
			"componentType":5126,
			"count":4030,
			"type":"VEC2"
		},
		{
			"bufferView":9,
			"componentType":5121,
			"count":4030,
			"normalized":true,
			"type":"VEC4"
		},
		{
			"bufferView":10,
			"componentType":5123,
			"count":4030,
			"normalized":true,
			"type":"VEC4"
		},
		{
			"bufferView":11,
			"componentType":5123,
			"count":22944,
			"type":"SCALAR"
		},
		{
			"bufferView":12,
			"componentType":5126,
			"count":2628,
			"max":[
				35.969696044921875,
				-560.5499267578125,
				38.382476806640625
			],
			"min":[
				-35.96973419189453,
				-591.619873046875,
				-40.54948425292969
			],
			"type":"VEC3"
		},
		{
			"bufferView":13,
			"componentType":5126,
			"count":2628,
			"type":"VEC3"
		},
		{
			"bufferView":14,
			"componentType":5126,
			"count":2628,
			"type":"VEC2"
		},
		{
			"bufferView":15,
			"componentType":5121,
			"count":2628,
			"normalized":true,
			"type":"VEC4"
		},
		{
			"bufferView":16,
			"componentType":5123,
			"count":2628,
			"normalized":true,
			"type":"VEC4"
		},
		{
			"bufferView":17,
			"componentType":5123,
			"count":14442,
			"type":"SCALAR"
		}
	],
	"bufferViews":[
		{
			"buffer":0,
			"byteLength":512184,
			"byteOffset":0,
			"target":34962
		},
		{
			"buffer":0,
			"byteLength":512184,
			"byteOffset":512184,
			"target":34962
		},
		{
			"buffer":0,
			"byteLength":341456,
			"byteOffset":1024368,
			"target":34962
		},
		{
			"buffer":0,
			"byteLength":170728,
			"byteOffset":1365824,
			"target":34962
		},
		{
			"buffer":0,
			"byteLength":341456,
			"byteOffset":1536552,
			"target":34962
		},
		{
			"buffer":0,
			"byteLength":446340,
			"byteOffset":1878008,
			"target":34963
		},
		{
			"buffer":0,
			"byteLength":48360,
			"byteOffset":2324348,
			"target":34962
		},
		{
			"buffer":0,
			"byteLength":48360,
			"byteOffset":2372708,
			"target":34962
		},
		{
			"buffer":0,
			"byteLength":32240,
			"byteOffset":2421068,
			"target":34962
		},
		{
			"buffer":0,
			"byteLength":16120,
			"byteOffset":2453308,
			"target":34962
		},
		{
			"buffer":0,
			"byteLength":32240,
			"byteOffset":2469428,
			"target":34962
		},
		{
			"buffer":0,
			"byteLength":45888,
			"byteOffset":2501668,
			"target":34963
		},
		{
			"buffer":0,
			"byteLength":31536,
			"byteOffset":2547556,
			"target":34962
		},
		{
			"buffer":0,
			"byteLength":31536,
			"byteOffset":2579092,
			"target":34962
		},
		{
			"buffer":0,
			"byteLength":21024,
			"byteOffset":2610628,
			"target":34962
		},
		{
			"buffer":0,
			"byteLength":10512,
			"byteOffset":2631652,
			"target":34962
		},
		{
			"buffer":0,
			"byteLength":21024,
			"byteOffset":2642164,
			"target":34962
		},
		{
			"buffer":0,
			"byteLength":28884,
			"byteOffset":2663188,
			"target":34963
		}
	],
	"samplers":[
		{
			"magFilter":9729,
			"minFilter":9987
		}
	],
	"buffers":[
		{
			"byteLength":2692072,
			"uri":"wz7.bin"
		}
	]
}
