{
	"asset":{
		"generator":"Khronos glTF Blender I/O v4.4.56",
		"version":"2.0"
	},
	"extensionsUsed":[
		"KHR_materials_specular"
	],
	"scene":0,
	"scenes":[
		{
			"name":"Scene",
			"nodes":[
				0
			]
		}
	],
	"nodes":[
		{
			"mesh":0,
			"name":"SLT_1",
			"rotation":[
				0.7071068286895752,
				0,
				0,
				0.7071068286895752
			],
			"scale":[
				0.009999999776482582,
				0.009999999776482582,
				0.009999999776482582
			]
		}
	],
	"materials":[
		{
			"doubleSided":true,
			"extensions":{
				"KHR_materials_specular":{
					"specularColorFactor":[
						2.0,
						2.0,
						2.0
					]
				}
			},
			"name":"blinn1.005",
			"pbrMetallicRoughness":{
				"baseColorTexture":{
					"index":0
				},
				"metallicFactor":0.5,
				"roughnessFactor":0.7487671971321106
			}
		}
	],
	"meshes":[
		{
			"name":"\u7f51\u683c.010",
			"primitives":[
				{
					"attributes":{
						"POSITION":0,
						"NORMAL":1,
						"TEXCOORD_0":2,
						"COLOR_0":3,
						"COLOR_1":4
					},
					"indices":5,
					"material":0
				}
			]
		}
	],
	"textures":[
		{
			"sampler":0,
			"source":0
		}
	],
	"images":[
		{
			"mimeType":"image/jpeg",
			"name":"SLT_01",
			"uri":"SLT_01.jpg"
		}
	],
	"accessors":[
		{
			"bufferView":0,
			"componentType":5126,
			"count":17684,
			"max":[
				89.12368774414062,
				508.306884765625,
				242.8033447265625
			],
			"min":[
				-89.12368774414062,
				-508.306884765625,
				-242.8033447265625
			],
			"type":"VEC3"
		},
		{
			"bufferView":1,
			"componentType":5126,
			"count":17684,
			"type":"VEC3"
		},
		{
			"bufferView":2,
			"componentType":5126,
			"count":17684,
			"type":"VEC2"
		},
		{
			"bufferView":3,
			"componentType":5121,
			"count":17684,
			"normalized":true,
			"type":"VEC4"
		},
		{
			"bufferView":4,
			"componentType":5123,
			"count":17684,
			"normalized":true,
			"type":"VEC4"
		},
		{
			"bufferView":5,
			"componentType":5123,
			"count":39207,
			"type":"SCALAR"
		}
	],
	"bufferViews":[
		{
			"buffer":0,
			"byteLength":212208,
			"byteOffset":0,
			"target":34962
		},
		{
			"buffer":0,
			"byteLength":212208,
			"byteOffset":212208,
			"target":34962
		},
		{
			"buffer":0,
			"byteLength":141472,
			"byteOffset":424416,
			"target":34962
		},
		{
			"buffer":0,
			"byteLength":70736,
			"byteOffset":565888,
			"target":34962
		},
		{
			"buffer":0,
			"byteLength":141472,
			"byteOffset":636624,
			"target":34962
		},
		{
			"buffer":0,
			"byteLength":78414,
			"byteOffset":778096,
			"target":34963
		}
	],
	"samplers":[
		{
			"magFilter":9729,
			"minFilter":9987
		}
	],
	"buffers":[
		{
			"byteLength":856512,
			"uri":"msyongfeng.bin"
		}
	]
}
